<svg xmlns="http://www.w3.org/2000/svg" width="47" height="51.722" viewBox="0 0 47 51.722"><defs><style>.a{fill:#22a2ff;}</style></defs><g transform="translate(-8.988 -0.001)"><g transform="translate(8.988 0.001)"><path class="a" d="M55.911,22.738a12.3,12.3,0,0,0-1.547-4.513c.273-4.482-.615-7.857-2.642-10.034a7.462,7.462,0,0,0-4.364-2.313c-1.43-3.022-3.86-3.607-5.337-3.465C39.255-.163,36.7-.224,35.01.2a7.4,7.4,0,0,0-2.522,1.191A7.393,7.393,0,0,0,29.965.2c-1.686-.421-4.244-.36-7.01,2.217-1.479-.143-3.908.443-5.337,3.465a7.459,7.459,0,0,0-4.364,2.313c-2.028,2.177-2.916,5.552-2.642,10.034a12.306,12.306,0,0,0-1.547,4.513,8.927,8.927,0,0,0,3.977,8.676c-.442,2.611-.024,7.105,4.146,9.316a5.865,5.865,0,0,0,.56,4.005A4.831,4.831,0,0,0,21.025,46.9c.762,1.176,3.389,4.818,6.667,4.818h.063c1.757-.025,3.345-1.064,4.733-3.092,1.388,2.028,2.976,3.067,4.733,3.092,3.3.048,5.963-3.634,6.73-4.818a4.83,4.83,0,0,0,3.277-2.169,5.865,5.865,0,0,0,.56-4.005c4.17-2.21,4.589-6.7,4.147-9.316A8.925,8.925,0,0,0,55.911,22.738Zm-5.472,7.534a.9.9,0,0,0-.372.963c.061.244,1.432,5.987-3.672,8.175a.9.9,0,0,0-.5,1.108,4.6,4.6,0,0,1-.205,3.293,3.3,3.3,0,0,1-2.443,1.4.9.9,0,0,0-.627.432c-.7,1.2-3.019,4.283-5.339,4.283h-.04c-1.4-.022-2.725-1.173-3.952-3.422a.952.952,0,0,0-.821-.467.9.9,0,0,0-.787.467c-1.226,2.249-2.556,3.4-3.952,3.422-2.322.037-4.673-3.079-5.379-4.283a.9.9,0,0,0-.627-.432,3.309,3.309,0,0,1-2.438-1.4,4.574,4.574,0,0,1-.209-3.3.9.9,0,0,0-.5-1.108c-5.077-2.176-3.731-7.932-3.672-8.175a.9.9,0,0,0-.372-.963c-6.689-4.459-2.448-11.047-2.265-11.324a.9.9,0,0,0,.148-.561c-.292-4.088.421-7.1,2.12-8.946a5.5,5.5,0,0,1,3.688-1.824.9.9,0,0,0,.832-.563c1-2.508,2.616-2.866,3.454-2.866a2.4,2.4,0,0,1,.523.052A.9.9,0,0,0,23.888,4c1.825-1.824,3.7-2.524,5.574-2.084a5.54,5.54,0,0,1,2.374,1.247.9.9,0,0,0,.634.263H32.5a.9.9,0,0,0,.634-.263,5.53,5.53,0,0,1,2.307-1.231c1.9-.474,3.795.221,5.642,2.068a.912.912,0,0,0,.843.238c.268-.061,2.659-.5,3.985,2.812a.9.9,0,0,0,.827.563,5.494,5.494,0,0,1,3.694,1.824c1.7,1.848,2.412,4.858,2.12,8.946a.9.9,0,0,0,.148.561,10.368,10.368,0,0,1,1.427,4.012C54.5,25.931,53.26,28.391,50.439,30.272Z" transform="translate(-8.988 -0.001)"/></g><g transform="translate(40.79 5.825)"><path class="a" d="M136.835,22.786a.9.9,0,0,0-1.134-.567c-5.576,1.859-5.64,6.518-5.64,6.715a.894.894,0,0,0,.89.893h.006a.9.9,0,0,0,.9-.887c0-.146.1-3.582,4.414-5.02A.9.9,0,0,0,136.835,22.786Z" transform="translate(-130.061 -22.173)"/></g><g transform="translate(41.627 27.607)"><path class="a" d="M143.236,107.966a.9.9,0,0,0-1.257-.169c-1.461,1.113-2.782,1.51-3.924,1.181-2.035-.586-3.06-3.266-3.07-3.294a.9.9,0,0,0-1.681.623c.053.144,1.34,3.546,4.244,4.391a4.715,4.715,0,0,0,1.324.189,7.016,7.016,0,0,0,4.195-1.663A.9.9,0,0,0,143.236,107.966Z" transform="translate(-133.248 -105.099)"/></g><g transform="translate(34.926 30.959)"><g transform="translate(0)"><path class="a" d="M109.266,118.124A.9.9,0,1,0,108,119.392c2.911,2.911,2.307,5.724,2.276,5.857a.9.9,0,0,0,.654,1.082.912.912,0,0,0,.218.027.9.9,0,0,0,.869-.68C112.054,125.521,112.933,121.792,109.266,118.124Z" transform="translate(-107.735 -117.861)"/></g></g><g transform="translate(36.89 14.118)"><path class="a" d="M128.689,62.447a.9.9,0,0,0-1.148-.537c-.181.065-4.456,1.56-6.727-1.462a14.679,14.679,0,0,1-2.093-3.993c-.5-1.325-.971-2.576-2.539-2.706a.9.9,0,1,0-.147,1.787c.375.03.516.248,1.008,1.551a16.464,16.464,0,0,0,2.338,4.438,6.632,6.632,0,0,0,5.539,2.6,10.289,10.289,0,0,0,3.235-.531A.9.9,0,0,0,128.689,62.447Z" transform="translate(-115.212 -53.745)"/></g><g transform="translate(31.574 1.636)"><path class="a" d="M95.872,6.226a.9.9,0,0,0-.9.9v44.4a.9.9,0,0,0,1.793,0V7.122A.9.9,0,0,0,95.872,6.226Z" transform="translate(-94.976 -6.226)"/></g><g transform="translate(34.295 8.476)"><path class="a" d="M110.064,33.151a.884.884,0,0,0-.91-.884.9.9,0,0,0-.884.91c0,.056.05,5.646-2.746,9.191a.9.9,0,1,0,1.408,1.111C110.118,39.439,110.068,33.406,110.064,33.151Z" transform="translate(-105.332 -32.267)"/></g><g transform="translate(34.925 36.823)"><path class="a" d="M113.657,140.187c-3.952,0-5.8,5.409-5.878,5.64a.9.9,0,0,0,1.7.568c.413-1.228,1.968-4.415,4.177-4.415a.9.9,0,1,0,0-1.793Z" transform="translate(-107.733 -140.187)"/></g><g transform="translate(38.276 2.096)"><path class="a" d="M124.074,8.156a.9.9,0,0,0-1.254.184l-2.151,2.89a.9.9,0,1,0,1.438,1.07l2.151-2.89A.9.9,0,0,0,124.074,8.156Z" transform="translate(-120.491 -7.979)"/></g><g transform="translate(19.918 8.068)"><g transform="translate(0)"><path class="a" d="M54.184,30.715A3.586,3.586,0,1,0,57.77,34.3,3.59,3.59,0,0,0,54.184,30.715Zm0,5.379A1.793,1.793,0,1,1,55.977,34.3,1.8,1.8,0,0,1,54.184,36.094Z" transform="translate(-50.598 -30.715)"/></g></g><g transform="translate(13.641 19.724)"><path class="a" d="M30.29,75.088a3.586,3.586,0,1,0,3.586,3.586A3.59,3.59,0,0,0,30.29,75.088Zm0,5.379a1.793,1.793,0,1,1,1.793-1.793A1.8,1.8,0,0,1,30.29,80.467Z" transform="translate(-26.704 -75.088)"/></g><g transform="translate(22.607 27.793)"><g transform="translate(0)"><path class="a" d="M64.424,105.808a3.586,3.586,0,1,0,3.586,3.586A3.59,3.59,0,0,0,64.424,105.808Zm0,5.379a1.793,1.793,0,1,1,1.793-1.793A1.8,1.8,0,0,1,64.424,111.187Z" transform="translate(-60.838 -105.808)"/></g></g><g transform="translate(22.607 37.656)"><g transform="translate(0)"><path class="a" d="M64.424,143.355a3.586,3.586,0,1,0,3.586,3.586A3.59,3.59,0,0,0,64.424,143.355Zm0,5.38a1.793,1.793,0,1,1,1.793-1.793A1.8,1.8,0,0,1,64.424,148.734Z" transform="translate(-60.838 -143.355)"/></g></g><g transform="translate(22.607 13.448)"><g transform="translate(0)"><path class="a" d="M61.734,51.195a.9.9,0,0,0-.9.9v8.966a.9.9,0,0,0,1.793,0V52.091A.9.9,0,0,0,61.734,51.195Z" transform="translate(-60.838 -51.195)"/></g></g><g transform="translate(19.021 22.414)"><path class="a" d="M54.357,85.328H48.08a.9.9,0,1,0,0,1.793h6.276a.9.9,0,0,0,0-1.793Z" transform="translate(-47.184 -85.328)"/></g><g transform="translate(25.297 22.414)"><g transform="translate(0)"><path class="a" d="M71.974,85.328a.9.9,0,0,0-.9.9V91.6a.9.9,0,0,0,1.793,0V86.224A.9.9,0,0,0,71.974,85.328Z" transform="translate(-71.078 -85.328)"/></g></g><g transform="translate(25.297 33.173)"><g transform="translate(0)"><path class="a" d="M71.974,126.288a.9.9,0,0,0-.9.9v4.483a.9.9,0,0,0,1.793,0v-4.483A.9.9,0,0,0,71.974,126.288Z" transform="translate(-71.078 -126.288)"/></g></g></g></svg>