<svg xmlns="http://www.w3.org/2000/svg" width="48.984" height="48.984" viewBox="0 0 48.984 48.984"><defs><style>.a{fill:#22a2ff;}</style></defs><g transform="translate(-16 -16)"><path class="a" d="M17.633,17.633H24.98V16H16.816a.816.816,0,0,0-.816.816V24.98h1.633Z"/><path class="a" d="M415.348,24.98h1.633V16.816a.816.816,0,0,0-.816-.816H408v1.633h7.348Z" transform="translate(-351.996)"/><path class="a" d="M415.348,415.348H408v1.633h8.164a.816.816,0,0,0,.816-.816V408h-1.633Z" transform="translate(-351.996 -351.996)"/><path class="a" d="M16.816,416.98H24.98v-1.633H17.633V408H16v8.164A.816.816,0,0,0,16.816,416.98Z" transform="translate(0 -351.996)"/><path class="a" d="M120.639,38.177a20.9,20.9,0,0,0,.834-5.849,16.328,16.328,0,1,0-32.656,0,20.9,20.9,0,0,0,.834,5.849A2.453,2.453,0,0,0,88,40.492v4.082a4.913,4.913,0,0,0,3.662,4.74l.2,3.23a9.016,9.016,0,0,0,3.214,6.339l5.213,4.344a7.581,7.581,0,0,0,9.707,0l5.213-4.344h0a9.016,9.016,0,0,0,3.214-6.339l.2-3.23a4.913,4.913,0,0,0,3.662-4.74V40.492A2.453,2.453,0,0,0,120.639,38.177ZM105.145,17.633a14.712,14.712,0,0,1,14.7,14.7,19.276,19.276,0,0,1-.991,6.105l-.21.629-.665-6.649a7.325,7.325,0,0,0-7.311-6.617H99.626a7.325,7.325,0,0,0-7.311,6.617l-.665,6.649-.21-.629a19.276,19.276,0,0,1-.991-6.105A14.712,14.712,0,0,1,105.145,17.633ZM102.523,57.1l.5.374a.816.816,0,0,0,.49.163h3.266a.816.816,0,0,0,.49-.163l.5-.374-2.622,5.243Zm6.558-16.729a3.792,3.792,0,0,1,4.373,0l.157.122-.157.122a3.792,3.792,0,0,1-4.373,0l-.157-.122Zm-7.715.122-.157.122a3.792,3.792,0,0,1-4.373,0l-.157-.122.157-.122a3.792,3.792,0,0,1,4.373,0Zm2.075.816h3.407l.668,7.348h-4.744Zm3.815-1.633h-4.223l-2.449-2.449H109.7Zm-9.07-2.539.907.907h-.071a5.2,5.2,0,0,0-3.189,1.038l-.151.118-1.356-3.164Zm-2.429,4.708.075.058a5.2,5.2,0,0,0,3.189,1.038,5.344,5.344,0,0,0,2.7-.7l-.57,6.273-7.176-1.3Zm7.755,11.806,1.268.634a.816.816,0,0,0,.73,0l1.268-.634,1.719.86L106.505,56h-2.721l-1.991-1.493Zm2.657-1.521-1.024.512-1.024-.512-.92-1.841h3.889Zm2.974-3.62-.57-6.272a5.344,5.344,0,0,0,2.7.7,5.2,5.2,0,0,0,3.189-1.038l.075-.058,1.787,5.36Zm5.465-9.311-.151-.118a5.2,5.2,0,0,0-3.189-1.038H111.2l.907-.907,3.86-1.1Zm-3.046-3.6H98.728L93.779,34.18l.16-1.6a5.7,5.7,0,0,1,5.686-5.146h11.038a5.7,5.7,0,0,1,5.686,5.146l.16,1.6ZM92.9,42.957,93.4,38.01l1.079,2.519-1.453,4.36Zm8.43,7.246,1.085,2.17-2.041,1.021-4.759-4.23Zm8.582,3.191-2.041-1.021,1.085-2.17,5.715-1.039Zm5.9-12.865,1.079-2.519.495,4.947-.121,1.932ZM89.633,44.574V40.492a.817.817,0,0,1,.519-.76L91.274,43.1l.278,4.451A3.278,3.278,0,0,1,89.633,44.574Zm6.49,13.054a7.377,7.377,0,0,1-2.63-5.186l-.2-3.156,6.29,5.591,4.152,8.3a5.956,5.956,0,0,1-2.4-1.208Zm18.043,0h0l-5.213,4.344a5.956,5.956,0,0,1-2.4,1.208l4.152-8.3,6.29-5.591-.2,3.156a7.377,7.377,0,0,1-2.629,5.186Zm6.49-13.054a3.278,3.278,0,0,1-1.919,2.976l.278-4.451,1.123-3.366a.817.817,0,0,1,.519.76Z" transform="translate(-64.652)"/></g></svg>