<svg xmlns="http://www.w3.org/2000/svg" width="68.499" height="43.833" viewBox="0 0 68.499 43.833"><defs><style>.a{fill:#22a2ff;}</style></defs><g transform="translate(0 -92.184)"><g transform="translate(19.304 92.184)"><g transform="translate(0 0)"><path class="a" d="M171.039,116.877l-5.831-2.591a1.142,1.142,0,0,1-.678-1.043v-1.6a8.5,8.5,0,0,0,3.218-6.657v-2.254a2.079,2.079,0,0,0,1.072-1.817v-.219a8.52,8.52,0,0,0-8.511-8.511h-2.145a8.52,8.52,0,0,0-8.511,8.511v1.985a2.1,2.1,0,0,0,.8,1.686,1.957,1.957,0,0,0,.272.176v.443a8.5,8.5,0,0,0,3.217,6.657v1.6a1.143,1.143,0,0,1-.678,1.043l-5.831,2.591a5.3,5.3,0,0,0-3.143,4.837v13.3a1,1,0,1,0,2.007,0v-13.3a3.282,3.282,0,0,1,.02-.345l2.687,2.687a2.2,2.2,0,0,1,.648,1.566v9.392a1,1,0,1,0,2.007,0v-9.392a4.193,4.193,0,0,0-1.236-2.985l-3.2-3.2a3.278,3.278,0,0,1,1.029-.723l5.732-2.548,4.251,4.251v14.6a1,1,0,0,0,2.007,0v-14.6l4.251-4.251,5.732,2.548a3.276,3.276,0,0,1,1.029.723l-3.2,3.2a4.193,4.193,0,0,0-1.236,2.985v9.392a1,1,0,0,0,2.007,0v-9.392a2.2,2.2,0,0,1,.648-1.566l2.687-2.687a3.276,3.276,0,0,1,.02.345v13.3a1,1,0,1,0,2.007,0v-13.3A5.3,5.3,0,0,0,171.039,116.877Zm-11.8,1.7-3.73-3.73a3.143,3.143,0,0,0,.444-1.607v-.408a8.5,8.5,0,0,0,6.573,0v.408a3.142,3.142,0,0,0,.444,1.607Zm0-7.092a6.511,6.511,0,0,1-6.5-6.5v-.451a5.933,5.933,0,0,0,1.822-1.183,1,1,0,0,0-1.361-1.475,3.6,3.6,0,0,1-1.49.89l-.027,0a.2.2,0,0,1-.017-.091v-1.985a6.511,6.511,0,0,1,6.5-6.5h2.145a6.511,6.511,0,0,1,6.5,6.5v.219a.065.065,0,0,1-.045.066c-6.009,1.187-9.022-1.05-10.039-2.067a1,1,0,0,0-1.419,1.419c3.116,3.116,7.663,3.172,10.431,2.84v1.813A6.511,6.511,0,0,1,159.237,111.488Z" transform="translate(-144.292 -92.184)"/></g></g><g transform="translate(0 97.546)"><g transform="translate(0 0)"><path class="a" d="M18.094,146.138v-2.145a7.437,7.437,0,0,0-3.41-6.248,4.221,4.221,0,1,0-8.056,0,7.436,7.436,0,0,0-3.41,6.248v2.145a7.434,7.434,0,0,0,3.217,6.12v2.207a1.135,1.135,0,0,1-.631,1.021L2.333,157.22A4.2,4.2,0,0,0,0,161v8.736a1,1,0,0,0,2.007,0v-8.3l1.635,1.635a2.2,2.2,0,0,1,.648,1.566v5.1a1,1,0,0,0,2.007,0v-5.1a4.194,4.194,0,0,0-1.236-2.985L2.785,159.37c-.011-.011-.023-.02-.034-.031a2.237,2.237,0,0,1,.479-.324L6.7,157.28a3.2,3.2,0,0,0,.5-.311l2.453,2.453v10.309a1,1,0,1,0,2.007,0V159.423l2.453-2.453a3.182,3.182,0,0,0,.5.311l.957.479a1,1,0,1,0,.9-1.795l-.957-.479a1.135,1.135,0,0,1-.631-1.021v-2.207A7.434,7.434,0,0,0,18.094,146.138Zm-7.438-11.866a2.216,2.216,0,0,1,2.214,2.214,2.249,2.249,0,0,1-.035.4,7.438,7.438,0,0,0-4.355,0,2.2,2.2,0,0,1,2.176-2.608Zm0,4.29a5.438,5.438,0,0,1,5.431,5.431v.364a6.3,6.3,0,0,1-6.774-2.038,1,1,0,0,0-1.512-.107,6.564,6.564,0,0,1-2.573,1.643A5.437,5.437,0,0,1,10.655,138.562Zm0,19.027L8.337,155.27a3.177,3.177,0,0,0,.1-.805V153.24a7.452,7.452,0,0,0,4.428,0v1.225a3.177,3.177,0,0,0,.1.805Zm0-6.019a5.438,5.438,0,0,1-5.431-5.431v-.208a8.045,8.045,0,0,0,3.224-1.606,9.053,9.053,0,0,0,1.861,1.355,7.981,7.981,0,0,0,3.835.99,8.407,8.407,0,0,0,1.934-.232A5.438,5.438,0,0,1,10.655,151.569Z" transform="translate(0 -132.265)"/></g></g><g transform="translate(48.261 99.691)"><g transform="translate(0 0)"><path class="a" d="M378.631,168.964l-5.615-2.808a1.135,1.135,0,0,1-.631-1.021v-1.422a6.351,6.351,0,0,0,2.145-4.759v-1.142h.069a1,1,0,0,0,1-1v-2.145a6.373,6.373,0,0,0-6.366-6.366h-2.145a6.373,6.373,0,0,0-6.366,6.366v2.145a1,1,0,0,0,1,1l.069,0v1.143a6.351,6.351,0,0,0,2.145,4.76v1.422a1.135,1.135,0,0,1-.631,1.021,1,1,0,1,0,.9,1.8,3.2,3.2,0,0,0,.5-.311l2.453,2.453V183.62a1,1,0,1,0,2.007,0V170.094l2.453-2.453a3.181,3.181,0,0,0,.5.311l5.434,2.717-1.648,1.648a4.193,4.193,0,0,0-1.236,2.985v8.319a1,1,0,1,0,2.007,0V175.3a2.2,2.2,0,0,1,.648-1.566l1.561-1.561a2.236,2.236,0,0,1,.073.565V183.62a1,1,0,1,0,2.007,0V172.739A4.2,4.2,0,0,0,378.631,168.964Zm-15.9-13.365v-.935h0a4.364,4.364,0,0,1,4.359-4.359h2.145a4.364,4.364,0,0,1,4.359,4.359v1.115a15.346,15.346,0,0,1-7.02-1.949,1,1,0,0,0-1.266.125A6.572,6.572,0,0,1,362.733,155.6Zm5.432,12.66-2.319-2.319a3.178,3.178,0,0,0,.1-.805v-.214a6.36,6.36,0,0,0,4.428,0v.214a3.171,3.171,0,0,0,.1.805Zm0-4.947a4.364,4.364,0,0,1-4.359-4.359v-1.618h0a8.491,8.491,0,0,0,2.355-1.437,17.827,17.827,0,0,0,6.363,1.809v1.246A4.364,4.364,0,0,1,368.164,163.312Z" transform="translate(-360.726 -148.298)"/></g></g></g></svg>