<svg xmlns="http://www.w3.org/2000/svg" width="19.734" height="14.801" viewBox="0 0 19.734 14.801">
    <defs>
        <style>
            .prefix__cls-1{fill:#a4a4a4}
        </style>
    </defs>
    <g id="prefix__mail" transform="translate(0 -64)">
        <g id="prefix__Group_24015" data-name="Group 24015" transform="translate(0 64)">
            <g id="prefix__Group_24014" data-name="Group 24014">
                <path id="prefix__Path_43172" d="M7.059 65.2c2.708 2.294 7.461 6.329 8.858 7.587a.825.825 0 0 0 1.194 0c1.4-1.259 6.151-5.3 8.859-7.589a.411.411 0 0 0 .058-.567A1.633 1.633 0 0 0 24.737 64H8.292A1.633 1.633 0 0 0 7 64.634a.411.411 0 0 0 .059.566z" class="prefix__cls-1" data-name="Path 43172" transform="translate(-6.647 -64)"/>
                <path id="prefix__Path_43173" d="M19.5 126.45a.409.409 0 0 0-.438.059c-3 2.546-6.837 5.81-8.043 6.9a1.665 1.665 0 0 1-2.295 0c-1.286-1.158-5.59-4.818-8.042-6.9a.411.411 0 0 0-.677.314v10.339a1.646 1.646 0 0 0 1.645 1.645h16.44a1.646 1.646 0 0 0 1.645-1.645v-10.339a.411.411 0 0 0-.235-.373z" class="prefix__cls-1" data-name="Path 43173" transform="translate(0 -124.006)"/>
            </g>
        </g>
    </g>
</svg>
