<svg xmlns="http://www.w3.org/2000/svg" width="18.5" height="18.5" viewBox="0 0 18.5 18.5"><defs><style>.a{opacity:0.4;}.b{fill:#353743;}</style></defs><g class="a"><path class="b" d="M17.016,12.143a10.5,10.5,0,0,1-3.3-.525,1.508,1.508,0,0,0-1.466.309L10.17,13.5A11.5,11.5,0,0,1,5,8.33L6.526,6.3a1.5,1.5,0,0,0,.368-1.515,10.52,10.52,0,0,1-.527-3.3A1.486,1.486,0,0,0,4.882,0h-3.4A1.486,1.486,0,0,0,0,1.484,17.035,17.035,0,0,0,17.016,18.5,1.486,1.486,0,0,0,18.5,17.016V13.628A1.486,1.486,0,0,0,17.016,12.143Z"/></g></svg>