<svg xmlns="http://www.w3.org/2000/svg" width="18.5" height="18.5" viewBox="0 0 18.5 18.5">
    <g id="prefix__phone" style="opacity:.4">
        <g id="prefix__Group_23986" data-name="Group 23986">
            <path id="prefix__Path_43144" d="M17.016 12.143a10.5 10.5 0 0 1-3.3-.525 1.508 1.508 0 0 0-1.466.309L10.17 13.5A11.5 11.5 0 0 1 5 8.33L6.526 6.3a1.5 1.5 0 0 0 .368-1.515 10.52 10.52 0 0 1-.527-3.3A1.486 1.486 0 0 0 4.882 0h-3.4A1.486 1.486 0 0 0 0 1.484 17.035 17.035 0 0 0 17.016 18.5a1.486 1.486 0 0 0 1.484-1.484v-3.388a1.486 1.486 0 0 0-1.484-1.485z" data-name="Path 43144" style="fill:#fff"/>
        </g>
    </g>
</svg>
