<svg xmlns="http://www.w3.org/2000/svg" width="66.495" height="42.063" viewBox="0 0 66.495 42.063"><defs><style>.a{fill:#22a2ff;}</style></defs><g transform="translate(0 -94.062)"><g transform="translate(0 94.062)"><path class="a" d="M61.84,111.894l-1.722-6.888a1.041,1.041,0,0,0,.824-1.018v-1.111A4.378,4.378,0,0,0,56.57,98.5H48.726V96.214a2.154,2.154,0,0,0-2.152-2.152H6.594a2.154,2.154,0,0,0-2.152,2.152v18.88a1.041,1.041,0,1,0,2.082,0V96.214a.069.069,0,0,1,.069-.069h39.98a.069.069,0,0,1,.069.069v18.88a1.041,1.041,0,0,0,2.082,0v-1.18H61.014a3.407,3.407,0,0,1,3.235,2.36H61.012a1.041,1.041,0,0,0-1.041,1.041v2.221a3.266,3.266,0,0,0,3.262,3.262h1.18v4.581H61.69a6.592,6.592,0,0,0-12.463,0h-.5v-7.843a1.041,1.041,0,1,0-2.082,0v7.843h-21.6a6.592,6.592,0,0,0-12.463,0H6.594a.069.069,0,0,1-.069-.069v-2.291h4.512a1.041,1.041,0,0,0,0-2.082h-10a1.041,1.041,0,0,0,0,2.082h3.4v2.291a2.154,2.154,0,0,0,2.152,2.152h5.624c0,.023,0,.046,0,.069a6.594,6.594,0,0,0,13.188,0c0-.023,0-.046,0-.069H48.867c0,.023,0,.046,0,.069a6.594,6.594,0,0,0,13.188,0c0-.023,0-.046,0-.069h3.4A1.041,1.041,0,0,0,66.5,128.42V117.314A5.492,5.492,0,0,0,61.84,111.894ZM48.726,100.587H56.57a2.293,2.293,0,0,1,2.291,2.291v.069H48.726Zm0,11.244v-6.8h9.252l1.7,6.8ZM18.81,134.043a4.512,4.512,0,1,1,4.512-4.512A4.517,4.517,0,0,1,18.81,134.043Zm36.649,0a4.512,4.512,0,1,1,4.512-4.512A4.517,4.517,0,0,1,55.459,134.043Zm8.954-13.327h-1.18a1.181,1.181,0,0,1-1.18-1.18v-1.18h2.36v2.36Z" transform="translate(0 -94.062)"/></g><g transform="translate(16.658 127.379)"><g transform="translate(0 0)"><path class="a" d="M130.419,350.6a2.152,2.152,0,1,0,2.152,2.152A2.154,2.154,0,0,0,130.419,350.6Z" transform="translate(-128.267 -350.597)"/></g></g><g transform="translate(53.307 127.379)"><g transform="translate(0 0)"><path class="a" d="M412.607,350.6a2.152,2.152,0,1,0,2.152,2.152A2.154,2.154,0,0,0,412.607,350.6Z" transform="translate(-410.455 -350.597)"/></g></g><g transform="translate(26.654 122.937)"><path class="a" d="M221.816,316.393H206.268a1.041,1.041,0,1,0,0,2.082h15.548a1.041,1.041,0,1,0,0-2.082Z" transform="translate(-205.227 -316.393)"/></g><g transform="translate(2.221 118.495)"><g transform="translate(0 0)"><path class="a" d="M31.47,282.188H18.143a1.041,1.041,0,1,0,0,2.082H31.47a1.041,1.041,0,1,0,0-2.082Z" transform="translate(-17.102 -282.188)"/></g></g><g transform="translate(18.88 104.057)"><g transform="translate(0 0)"><path class="a" d="M162.7,171.327a1.041,1.041,0,0,0-1.472,0l-9.259,9.259-4.817-4.817a1.041,1.041,0,0,0-1.472,1.472l5.553,5.553a1.041,1.041,0,0,0,1.472,0l10-10A1.041,1.041,0,0,0,162.7,171.327Z" transform="translate(-145.37 -171.023)"/></g></g></g></svg>