<svg id="Component_13_1" data-name="Component 13 – 1" xmlns="http://www.w3.org/2000/svg" xmlns:xlink="http://www.w3.org/1999/xlink" width="200.423" height="172.556" viewBox="0 0 200.423 172.556">
  <defs>
    <style>
      .cls-1 {
        fill: #f0f3f9;
      }

      .cls-2 {
        fill: url(#linear-gradient);
      }

      .cls-3 {
        fill: #b6bade;
      }

      .cls-4 {
        fill: none;
      }

      .cls-5 {
        fill: #cdd1f6;
      }

      .cls-6 {
        fill: #e3e5f5;
      }

      .cls-7 {
        fill: #b5b9dc;
      }

      .cls-8 {
        fill: #f3e7e0;
      }

      .cls-9 {
        fill: #f5f5fd;
      }

      .cls-10 {
        fill: #f2eae6;
      }

      .cls-11 {
        fill: url(#linear-gradient-2);
      }

      .cls-12 {
        fill: #b6ccdf;
        opacity: 0.3;
        mix-blend-mode: screen;
      }

      .cls-12, .cls-13 {
        isolation: isolate;
      }

      .cls-14 {
        clip-path: url(#clip-path);
      }

      .cls-15 {
        clip-path: url(#clip-path-2);
      }

      .cls-16 {
        fill: #f1f5fa;
      }

      .cls-17 {
        fill: url(#linear-gradient-4);
      }

      .cls-18 {
        fill: #141e30;
      }

      .cls-19 {
        fill: #98315d;
      }

      .cls-20 {
        fill: url(#linear-gradient-5);
      }

      .cls-21 {
        fill: #a5a9d3;
      }

      .cls-22 {
        clip-path: url(#clip-path-3);
      }

      .cls-23 {
        clip-path: url(#clip-path-4);
      }

      .cls-24 {
        clip-path: url(#clip-path-5);
      }

      .cls-25 {
        clip-path: url(#clip-path-6);
      }

      .cls-26 {
        clip-path: url(#clip-path-7);
      }

      .cls-27 {
        clip-path: url(#clip-path-8);
      }

      .cls-28 {
        clip-path: url(#clip-path-9);
      }

      .cls-29 {
        clip-path: url(#clip-path-10);
      }

      .cls-30 {
        fill: #c8cbe0;
      }

      .cls-31 {
        fill: url(#linear-gradient-6);
      }

      .cls-32 {
        clip-path: url(#clip-path-11);
      }

      .cls-33 {
        clip-path: url(#clip-path-12);
      }

      .cls-34 {
        clip-path: url(#clip-path-13);
      }

      .cls-35 {
        fill: url(#linear-gradient-7);
      }

      .cls-36 {
        fill: #dcdeed;
      }

      .cls-37 {
        fill: url(#linear-gradient-8);
      }

      .cls-38 {
        fill: #5c697c;
      }

      .cls-39 {
        fill: #1b1b1b;
      }

      .cls-40 {
        fill: #1b1823;
      }

      .cls-41 {
        fill: #404040;
      }

      .cls-42 {
        fill: #21212b;
      }

      .cls-43 {
        fill: #6d1487;
      }

      .cls-44 {
        opacity: 0.5;
        fill: url(#linear-gradient-9);
      }
    </style>
    <linearGradient id="linear-gradient" x1="-4205.204" y1="0.5" x2="-4204.204" y2="0.5" gradientUnits="objectBoundingBox">
      <stop offset="0.005" stop-color="#e4e9f2"/>
      <stop offset="1" stop-color="#b4c2da"/>
    </linearGradient>
    <linearGradient id="linear-gradient-2" x1="0.83" y1="0.878" x2="0.111" y2="0.279" gradientUnits="objectBoundingBox">
      <stop offset="0.005" stop-color="#7e1fcc"/>
      <stop offset="1" stop-color="#ff445f"/>
    </linearGradient>
    <clipPath id="clip-path">
      <path id="Path_44005" data-name="Path 44005" class="cls-1" d="M412.061,178.323l-2.777,1.616a1.343,1.343,0,0,1,1.357.13l2.777-1.616A1.343,1.343,0,0,0,412.061,178.323Z" transform="translate(-409.284 -178.193)"/>
    </clipPath>
    <clipPath id="clip-path-2">
      <path id="Path_44009" data-name="Path 44009" class="cls-2" d="M425.817,191.214l2.777-1.616a4.224,4.224,0,0,0-1.9-3.3l-2.777,1.616A4.224,4.224,0,0,1,425.817,191.214Z" transform="translate(-423.913 -186.296)"/>
    </clipPath>
    <linearGradient id="linear-gradient-4" x1="-813.81" y1="0.5" x2="-812.81" y2="0.5" gradientUnits="objectBoundingBox">
      <stop offset="0" stop-color="#21deff"/>
      <stop offset="0.288" stop-color="#1ad2fa"/>
      <stop offset="1" stop-color="#0ab4ef"/>
    </linearGradient>
    <linearGradient id="linear-gradient-5" x1="-0.604" y1="0.84" x2="-1.835" y2="0.084" xlink:href="#linear-gradient-2"/>
    <clipPath id="clip-path-3">
      <path id="Path_44218" data-name="Path 44218" class="cls-3" d="M387.77,230l9.361,5.441c2.127,1.235,5.5.885,9.282-1.3,6.4-3.7,11.593-11.261,11.577-16.863l-9.361-5.441c.016,5.6-5.178,13.169-11.577,16.863C393.267,230.882,389.9,231.232,387.77,230Z" transform="translate(-387.77 -211.834)"/>
    </clipPath>
    <clipPath id="clip-path-4">
      <path id="Path_44221" data-name="Path 44221" class="cls-4" d="M409.64,207.166l-9.361-5.441a5.157,5.157,0,0,1,2.354,4.76l9.361,5.44A5.154,5.154,0,0,0,409.64,207.166Z" transform="translate(-400.279 -201.725)"/>
    </clipPath>
    <clipPath id="clip-path-5">
      <path id="Path_44225" data-name="Path 44225" class="cls-3" d="M388.17,226.627l9.361,5.44c-1.642-.954-2.623-2.771-2.63-5.351l-9.361-5.44C385.546,223.856,386.527,225.673,388.17,226.627Z" transform="translate(-385.539 -221.276)"/>
    </clipPath>
    <clipPath id="clip-path-6">
      <path id="Path_44230" data-name="Path 44230" class="cls-4" d="M413.3,206.645l-9.363-5.44c-2.3-1.34-5.91-.979-9.949,1.353l9.361,5.44C407.4,205.666,411,205.307,413.3,206.645Z" transform="translate(-393.993 -200.43)"/>
    </clipPath>
    <clipPath id="clip-path-7">
      <path id="Path_44235" data-name="Path 44235" class="cls-4" d="M407.4,207.311l-9.361-5.44c-6.918,3.994-12.534,12.289-12.516,18.489l9.361,5.441C394.862,219.6,400.478,211.3,407.4,207.311Z" transform="translate(-385.519 -201.871)"/>
    </clipPath>
    <clipPath id="clip-path-8">
      <path id="Path_44239" data-name="Path 44239" class="cls-5" d="M393.443,228.036l3.746-2.176a1.875,1.875,0,0,0,.784-1.718l-3.744,2.177A1.875,1.875,0,0,1,393.443,228.036Z" transform="translate(-393.443 -224.143)"/>
    </clipPath>
    <clipPath id="clip-path-9">
      <path id="Path_44244" data-name="Path 44244" class="cls-6" d="M386.637,207.122l-3.744,2.176a1.89,1.89,0,0,1,1.908.183l3.746-2.176A1.89,1.89,0,0,0,386.637,207.122Z" transform="translate(-382.893 -206.939)"/>
    </clipPath>
    <clipPath id="clip-path-10">
      <path id="Path_44251" data-name="Path 44251" class="cls-5" d="M394.865,218.617l3.744-2.176a5.91,5.91,0,0,0-2.673-4.632l-3.746,2.176A5.918,5.918,0,0,1,394.865,218.617Z" transform="translate(-392.19 -211.809)"/>
    </clipPath>
    <linearGradient id="linear-gradient-6" x1="4.084" y1="0.782" x2="2.627" y2="0.096" xlink:href="#linear-gradient-2"/>
    <clipPath id="clip-path-11">
      <path id="Path_44799" data-name="Path 44799" class="cls-5" d="M242.193,297.867l.009,3.338a1.389,1.389,0,0,0,.81,1.138L243,299A1.386,1.386,0,0,1,242.193,297.867Z" transform="translate(-242.193 -297.867)"/>
    </clipPath>
    <clipPath id="clip-path-12">
      <path id="Path_44802" data-name="Path 44802" class="cls-5" d="M280.16,307.583l-.009-3.338a1.4,1.4,0,0,1-.823,1.154l.009,3.338A1.4,1.4,0,0,0,280.16,307.583Z" transform="translate(-279.328 -304.245)"/>
    </clipPath>
    <clipPath id="clip-path-13">
      <path id="Path_44807" data-name="Path 44807" class="cls-5" d="M265.347,311.685l.009,3.338a4.384,4.384,0,0,0,3.958,0l-.011-3.338A4.381,4.381,0,0,1,265.347,311.685Z" transform="translate(-265.347 -311.685)"/>
    </clipPath>
    <linearGradient id="linear-gradient-7" x1="0.882" y1="0.938" x2="0.086" y2="0.026" xlink:href="#linear-gradient-2"/>
    <linearGradient id="linear-gradient-8" x1="607.073" y1="0.753" x2="606.517" y2="0.408" gradientUnits="objectBoundingBox">
      <stop offset="0.005" stop-color="#857faa"/>
      <stop offset="0.221" stop-color="#8f89b4"/>
      <stop offset="0.643" stop-color="#9d97c2"/>
      <stop offset="0.995" stop-color="#a29dc7"/>
    </linearGradient>
    <linearGradient id="linear-gradient-9" x1="144.142" y1="0.5" x2="145.142" y2="0.5" gradientUnits="objectBoundingBox">
      <stop offset="0" stop-color="#148a9e"/>
      <stop offset="1" stop-color="#087dc2"/>
    </linearGradient>
  </defs>
  <g id="Group_24423" data-name="Group 24423" transform="translate(70.648 12.156) rotate(-9)">
    <g id="Group_24422" data-name="Group 24422">
      <g id="Group_24421" data-name="Group 24421">
        <g id="Group_24417" data-name="Group 24417" transform="translate(15.056 57.487)">
          <g id="Group_24416" data-name="Group 24416" transform="translate(0)">
            <g id="Group_24415" data-name="Group 24415" transform="translate(26.842 11.977)">
              <path id="Path_43971" data-name="Path 43971" class="cls-7" d="M410.069,211.157l2.879-2.408a7.181,7.181,0,0,0,2.58-5.523V183.995h-.914v19.232a6.269,6.269,0,0,1-2.251,4.821l-3.23,2.712Z" transform="translate(-409.133 -183.995)"/>
            </g>
            <path id="Path_43972" data-name="Path 43972" class="cls-8" d="M406.616,205.509h.013v.642l4.637-3.667.026-.026-.471-.275-.092.079Z" transform="translate(-383.492 -163.343)"/>
            <path id="Path_43973" data-name="Path 43973" class="cls-7" d="M406.616,205.631h.013v.642l4.637-3.667.026-.026v-.655l-.314.249-.157.131-.092.079Z" transform="translate(-383.492 -163.465)"/>
            <path id="Path_43974" data-name="Path 43974" class="cls-9" d="M390.96,204.821l23.124,13.233L418.2,214.8l.092-.078.157-.13h.04l.275-.236,2.594-2.174.092-.078a6.187,6.187,0,0,0,2.252-4.743V188.726l-.419-.223L408.9,180.549l-5.121-4.663h-.917v19.228a2.82,2.82,0,0,1-.013.341,6.209,6.209,0,0,1-2.239,4.478,2.462,2.462,0,0,1-.315.224C399,201.008,395.085,202.895,390.96,204.821Z" transform="translate(-390.96 -175.886)"/>
            <path id="Path_43975" data-name="Path 43975" class="cls-7" d="M399.012,192.849l20.845,11.909v-17.25c-1.467-1.442-2.554-2.41-2.7-2.252-.341.406-13.642-3.291-18.135-3.907v11.159A2.82,2.82,0,0,1,399.012,192.849Z" transform="translate(-387.119 -173.28)"/>
          </g>
          <path id="Path_43976" data-name="Path 43976" class="cls-10" d="M414.084,208.708,390.96,195.476v.653L414.1,209.35Z" transform="translate(-390.96 -166.542)"/>
          <path id="Path_43977" data-name="Path 43977" class="cls-5" d="M397.283,193.838l21.055,12.027.092-.078a6.187,6.187,0,0,0,2.252-4.743l-20.845-11.909a6.209,6.209,0,0,1-2.239,4.478A2.464,2.464,0,0,1,397.283,193.838Z" transform="translate(-387.944 -169.566)"/>
        </g>
        <g id="Group_24420" data-name="Group 24420">
          <path id="Path_43978" data-name="Path 43978" class="cls-7" d="M381.716,138.479l.5.1h.006l1.046.205c-.021.111-.041.227-.062.344a6.839,6.839,0,0,0-.062.948l.1,10.964.254,37.395c.021,2.922,1.821,6.3,4.02,7.553l67.233,38.69c.034.021.075.04.117.062l-.515,1.868,2.288-1.343a3.254,3.254,0,0,0,1.362-2.728c.013-.165.013-.338.013-.51l-.365-48.276v-.081a10.019,10.019,0,0,0-2.124-5.843,6.67,6.67,0,0,0-1.9-1.712L386.41,137.424a2.577,2.577,0,0,0-2.515-.227v-.007l-1.9,1.124Z" transform="translate(-380.313 -136.965)"/>
          <path id="Path_43979" data-name="Path 43979" class="cls-9" d="M381.907,138.313l.22.261h.006l.984.549,70.023,39.789,2.3-1.089a6.67,6.67,0,0,0-1.9-1.712l-67.226-38.689a2.577,2.577,0,0,0-2.515-.227v-.007Z" transform="translate(-380.222 -136.965)"/>
          <path id="Path_43980" data-name="Path 43980" class="cls-7" d="M428.143,167.168l2.5,6.152,4.865-2.766v-.081a10.019,10.019,0,0,0-2.124-5.843Z" transform="translate(-358.167 -123.769)"/>
          <path id="Path_43981" data-name="Path 43981" class="cls-1" d="M380.766,141.316l.047,4.822v.007l.056,6.134.257,37.392c.015,2.919,1.823,6.3,4.029,7.556l24.622,13.962,26.456,14.993.616.368,15.529,9.364a2.361,2.361,0,0,0,3.79-1.592,5.048,5.048,0,0,0,.143-.928c.009-.167.009-.335.009-.511l-.04-5.5-.1-14.178-.208-28.676c-.025-2.927-1.831-6.31-4.031-7.558L424.2,161.251l-.056-.032-9.484-5.629-12.02-7.141h-.007l-13.891-7.884-4.022-2.279c-1.471-.832-2.743-.5-3.431.672A4.815,4.815,0,0,0,380.766,141.316Z" transform="translate(-380.766 -136.556)"/>
          <g id="Group_24419" data-name="Group 24419" transform="translate(2.676 5.572)">
            <path id="Path_43982" data-name="Path 43982" class="cls-11" d="M382.578,140.739v49.249c13.7,8,13.739,8.022,43.414,25.369,7.716,4.511-.976-.569,26.874,15.7V181.809c-39.151-22.891-58.286-34.058-69.789-40.774Z" transform="translate(-382.578 -140.737)"/>
            <g id="Group_24418" data-name="Group 24418" transform="translate(10.702 12.97)">
              <path id="Path_43983" data-name="Path 43983" class="cls-9" d="M412.926,169.792a.736.736,0,0,0,.276.31.265.265,0,0,0,.225.037c.152-.056.174-.3.05-.549a34.289,34.289,0,0,0-2.028-3.495c-.154-.23-.377-.332-.5-.226s-.1.377.055.609A32.6,32.6,0,0,1,412.926,169.792Z" transform="translate(-379.785 -141.74)"/>
              <path id="Path_43984" data-name="Path 43984" class="cls-9" d="M407.793,162.737a26.875,26.875,0,0,1,2.529,2.582.618.618,0,0,0,.161.137c.13.074.255.065.318-.041a.635.635,0,0,0-.157-.643,28.273,28.273,0,0,0-2.667-2.724c-.189-.167-.384-.151-.436.04A.738.738,0,0,0,407.793,162.737Z" transform="translate(-381.379 -143.597)"/>
              <path id="Path_43985" data-name="Path 43985" class="cls-9" d="M406.5,160.843c-.484-.309-.975-.592-1.462-.843-.195-.1-.346,0-.337.236a.8.8,0,0,0,.374.606c.306.158.614.329.922.513.155.093.312.191.467.29l.019.01c.188.108.344.03.354-.183A.784.784,0,0,0,406.5,160.843Z" transform="translate(-382.727 -144.538)"/>
              <path id="Path_43986" data-name="Path 43986" class="cls-9" d="M412.192,170.927l2.877,6.147c.319.682.65.78.736.22l.775-5.063c.086-.561-.195-.92-.625-.8l-.736.207a1.316,1.316,0,0,1-.566,0c-.055-.161-.106-.323-.164-.483-.089-.256-.3-.459-.479-.453s-.242.211-.152.465c.027.077.052.157.078.233a2.708,2.708,0,0,1-.459-.281l-.9-.7C412.046,170.021,411.875,170.246,412.192,170.927Z" transform="translate(-379.23 -139.642)"/>
              <path id="Path_43987" data-name="Path 43987" class="cls-9" d="M400.1,176.826a30.209,30.209,0,0,1-2.313-2.964c-.158-.229-.38-.322-.5-.21s-.089.387.068.614a32.15,32.15,0,0,0,2.439,3.125.629.629,0,0,0,.154.128c.133.077.26.065.322-.047A.654.654,0,0,0,400.1,176.826Z" transform="translate(-386.296 -138.03)"/>
              <path id="Path_43988" data-name="Path 43988" class="cls-9" d="M403.731,179.491a20.652,20.652,0,0,1-2.687-1.963c-.191-.162-.383-.139-.43.055a.75.75,0,0,0,.263.648,21.934,21.934,0,0,0,2.833,2.069l.01.007c.192.111.35.025.355-.195A.788.788,0,0,0,403.731,179.491Z" transform="translate(-384.682 -136.21)"/>
              <path id="Path_43989" data-name="Path 43989" class="cls-9" d="M405.994,180.128a12.192,12.192,0,0,1-1.35-.408c-.193-.069-.322.069-.285.315a.8.8,0,0,0,.349.539.637.637,0,0,0,.065.03,12.551,12.551,0,0,0,1.422.43c.189.044.3-.121.239-.372A.725.725,0,0,0,405.994,180.128Z" transform="translate(-382.894 -135.121)"/>
              <path id="Path_43990" data-name="Path 43990" class="cls-9" d="M398.683,173.358l-3.7-5.729c-.409-.634-.713-.631-.673.009l.353,5.771c.038.641.353.938.7.662l.589-.473a1.05,1.05,0,0,1,.484-.192c.078.158.155.316.236.473a.736.736,0,0,0,.27.3.26.26,0,0,0,.232.034c.148-.062.165-.31.037-.557-.04-.075-.075-.152-.114-.227a1.891,1.891,0,0,1,.449.151l.914.455C398.99,174.3,399.092,173.993,398.683,173.358Z" transform="translate(-387.687 -141.106)"/>
              <path id="Path_43991" data-name="Path 43991" class="cls-9" d="M409.4,160.415l-18.655-10.77c-.51-.294-.922-.055-.922.53v13.64a2.036,2.036,0,0,0,.922,1.6l6.171,3.564v1.973l-1.511-.873v1.38l9.335,5.39v-1.38l-1.512-.873v-1.973l6.172,3.563c.508.294.922.055.922-.533v-13.64A2.037,2.037,0,0,0,409.4,160.415Zm.182,14.272c0,.349-.248.493-.552.318l-17.913-10.342a1.223,1.223,0,0,1-.552-.957V151.141c0-.352.247-.5.552-.321l17.913,10.342a1.227,1.227,0,0,1,.552.959Z" transform="translate(-389.824 -149.519)"/>
              <path id="Path_43992" data-name="Path 43992" class="cls-9" d="M397.467,160.286c1.193.69,2.164.131,2.164-1.248a4.786,4.786,0,0,0-2.164-3.747c-1.195-.69-2.164-.13-2.164,1.25A4.78,4.78,0,0,0,397.467,160.286Z" transform="translate(-387.21 -146.907)"/>
              <path id="Path_43993" data-name="Path 43993" class="cls-9" d="M399.954,160.234l-1.114,1.288-.371-1.684.318-.451-.585-.338-.015-.009-.588-.338.319.818-.36,1.248-1.106-2.557a1.615,1.615,0,0,0-2.152,1.041,9.462,9.462,0,0,0-.555,2.391l8.915,5.146a18.588,18.588,0,0,0-.554-3.031A7.064,7.064,0,0,0,399.954,160.234Z" transform="translate(-387.954 -145.416)"/>
              <path id="Path_43994" data-name="Path 43994" class="cls-9" d="M426.808,196.591l-1.077-1.756a8.148,8.148,0,0,0-.761-1.022.465.465,0,0,0,.312-.5V183.2a1.656,1.656,0,0,0-.747-1.294l-15.122-8.731c-.411-.236-.747-.043-.747.431v10.11a1.588,1.588,0,0,0,.312.861,1.867,1.867,0,0,0-.762.142l-1.074.516c-.607.289-.431.914.39,1.388l18.885,10.9C427.238,198,427.414,197.581,426.808,196.591Zm-17.542-22.208c0-.285.2-.4.449-.26l14.519,8.384a.994.994,0,0,1,.449.777v9.256c0,.284-.2.4-.449.258l-14.519-8.383a.992.992,0,0,1-.449-.775Z" transform="translate(-381.736 -138.282)"/>
              <path id="Path_43995" data-name="Path 43995" class="cls-9" d="M414.208,181.276c.891.515,1.613.1,1.613-.932a3.57,3.57,0,0,0-1.613-2.8c-.892-.514-1.616-.1-1.616.932A3.567,3.567,0,0,0,414.208,181.276Z" transform="translate(-378.963 -136.254)"/>
              <path id="Path_43996" data-name="Path 43996" class="cls-9" d="M417.667,183.867a5.286,5.286,0,0,0-1.6-2.632l-.832.962-.276-1.255.236-.337-.436-.253-.012-.006-.439-.253.239.612-.27.93-.824-1.908a1.205,1.205,0,0,0-1.606.778,7.077,7.077,0,0,0-.415,1.781l6.651,3.84A13.6,13.6,0,0,0,417.667,183.867Z" transform="translate(-379.518 -135.142)"/>
            </g>
            <path id="Path_43997" data-name="Path 43997" class="cls-7" d="M383.583,141.317v48.127l69.285,40.493v1.124l-70.287-41.073V140.737Z" transform="translate(-382.577 -140.737)"/>
            <path id="Path_43998" data-name="Path 43998" class="cls-9" d="M452.868,215.331l-70.287-41.073,1-.544,69.285,40.493Z" transform="translate(-382.577 -125.007)"/>
          </g>
        </g>
      </g>
    </g>
    <path id="Path_43999" data-name="Path 43999" class="cls-12" d="M412.114,158l26.664,46.2V190.936l-15.134-26.207-.651-.381-2.775-1.616L418.1,161.5l-4.6-2.69Z" transform="translate(-365.813 -126.934)"/>
    <path id="Path_44000" data-name="Path 44000" class="cls-12" d="M382.916,140.939l42.914,74.323,5.7,3.333.262.152,20.911,12.215v-2.5L411.965,157.9l-1.481-.863-.3-.178-.381-.22-.8-.474-1.294-.753-.618-.364Z" transform="translate(-379.74 -135.069)"/>
  </g>
  <g id="Group_24438" data-name="Group 24438" transform="translate(173.444 96.355)">
    <g id="Group_24436" data-name="Group 24436">
      <g id="Group_24432" data-name="Group 24432">
        <g id="Group_24431" data-name="Group 24431" class="cls-13">
          <g id="Group_24426" data-name="Group 24426" transform="translate(0.691)">
            <path id="Path_44001" data-name="Path 44001" class="cls-1" d="M412.061,178.323l-2.777,1.616a1.343,1.343,0,0,1,1.357.13l2.777-1.616A1.343,1.343,0,0,0,412.061,178.323Z" transform="translate(-409.284 -178.193)"/>
            <g id="Group_24425" data-name="Group 24425" class="cls-14">
              <g id="Group_24424" data-name="Group 24424" class="cls-13" transform="translate(0 0)">
                <path id="Path_44002" data-name="Path 44002" class="cls-1" d="M410.389,180.059l2.777-1.616a1.963,1.963,0,0,0-.576-.23l-2.777,1.616a2,2,0,0,1,.576.23Z" transform="translate(-409.032 -178.183)"/>
                <path id="Path_44003" data-name="Path 44003" class="cls-1" d="M410.054,179.838l2.777-1.616a1.1,1.1,0,0,0-.747.081l-2.775,1.616a1.091,1.091,0,0,1,.746-.081Z" transform="translate(-409.272 -178.193)"/>
                <path id="Path_44004" data-name="Path 44004" class="cls-1" d="M409.319,179.884l2.775-1.616-.034.019-2.777,1.616.035-.019Z" transform="translate(-409.284 -178.157)"/>
              </g>
            </g>
          </g>
          <g id="Group_24427" data-name="Group 24427" transform="translate(2.049 0.26)">
            <path id="Path_44006" data-name="Path 44006" class="cls-9" d="M430.453,191.694l2.777-1.616-20.25-11.709-2.776,1.616Z" transform="translate(-410.203 -178.369)"/>
          </g>
          <g id="Group_24429" data-name="Group 24429" transform="translate(22.298 11.968)">
            <path id="Path_44007" data-name="Path 44007" class="cls-2" d="M425.817,191.214l2.777-1.616a4.224,4.224,0,0,0-1.9-3.3l-2.777,1.616A4.224,4.224,0,0,1,425.817,191.214Z" transform="translate(-423.913 -186.296)"/>
            <g id="Group_24428" data-name="Group 24428" class="cls-15">
              <path id="Path_44008" data-name="Path 44008" class="cls-5" d="M426.69,186.3a3.464,3.464,0,0,1,.923.811,4.7,4.7,0,0,1,.644,1.047,3.588,3.588,0,0,1,.337,1.445l-2.777,1.616a3.588,3.588,0,0,0-.337-1.445,4.642,4.642,0,0,0-.644-1.047,3.463,3.463,0,0,0-.923-.811Z" transform="translate(-423.913 -186.296)"/>
            </g>
          </g>
          <g id="Group_24430" data-name="Group 24430" transform="translate(0 1.616)">
            <path id="Path_44010" data-name="Path 44010" class="cls-16" d="M408.816,213.682a4.214,4.214,0,0,0,1.9,3.3l20.25,11.708c1.05.609,1.913.115,1.917-1.093l.01-1.546-24.069-13.918Z" transform="translate(-408.816 -163.618)"/>
            <path id="Path_44011" data-name="Path 44011" class="cls-17" d="M408.94,181.573l-.117,45.139,24.069,13.918.117-45.139Z" transform="translate(-408.813 -178.196)"/>
            <path id="Path_44012" data-name="Path 44012" class="cls-16" d="M432.977,194.558a4.224,4.224,0,0,0-1.9-3.3l-20.25-11.708c-1.05-.607-1.913-.115-1.916,1.093l-.006,2.023,24.069,13.918Z" transform="translate(-408.775 -179.287)"/>
          </g>
        </g>
      </g>
      <g id="Group_24433" data-name="Group 24433" transform="translate(16.706 8.891)">
        <path id="Path_44013" data-name="Path 44013" class="cls-5" d="M422.44,184.915a.589.589,0,0,1-.331.446,1.824,1.824,0,0,1-1.645,0,.736.736,0,0,1-.245-.213c-.179-.25-.1-.538.245-.74a1.824,1.824,0,0,1,1.645,0A.538.538,0,0,1,422.44,184.915Z" transform="translate(-420.127 -184.212)"/>
        <path id="Path_44014" data-name="Path 44014" class="cls-18" d="M422.41,184.82a.589.589,0,0,1-.331.446,1.824,1.824,0,0,1-1.645,0,.736.736,0,0,1-.245-.213.58.58,0,0,1,.337-.446,1.824,1.824,0,0,1,1.641,0A.715.715,0,0,1,422.41,184.82Z" transform="translate(-420.097 -184.117)"/>
      </g>
      <g id="Group_24434" data-name="Group 24434" transform="translate(19.528 10.398)">
        <path id="Path_44015" data-name="Path 44015" class="cls-5" d="M425.7,187a.624.624,0,0,1-.253.253,1.61,1.61,0,0,1-1.5-.007l-1.6-.942a.663.663,0,0,1-.241-.232c-.137-.226-.058-.477.247-.656a1.619,1.619,0,0,1,1.505.013l1.585.954C425.731,186.549,425.82,186.785,425.7,187Z" transform="translate(-422.037 -185.233)"/>
        <path id="Path_44016" data-name="Path 44016" class="cls-18" d="M425.675,186.87a.624.624,0,0,1-.253.253,1.61,1.61,0,0,1-1.5-.007l-1.6-.942a.663.663,0,0,1-.241-.232.588.588,0,0,1,.259-.264,1.623,1.623,0,0,1,1.505.013l1.585.954A.613.613,0,0,1,425.675,186.87Z" transform="translate(-422.016 -185.106)"/>
      </g>
      <path id="Path_44017" data-name="Path 44017" class="cls-5" d="M415.362,184.812l7.382,4.27c.319.183.579.033.579-.335h0a1.282,1.282,0,0,0-.579-1l-7.382-4.269c-.319-.185-.579-.034-.579.334h0A1.282,1.282,0,0,0,415.362,184.812Z" transform="translate(-405.97 -175.711)"/>
      <g id="Group_24435" data-name="Group 24435" transform="translate(23.51 15.271)">
        <path id="Path_44018" data-name="Path 44018" class="cls-5" d="M425.293,223.578a1.34,1.34,0,0,1-.56,1.224l2.777-1.617a1.332,1.332,0,0,0,.558-1.223l.01-1.4-2.775,1.605Z" transform="translate(-424.733 -173.254)"/>
        <path id="Path_44019" data-name="Path 44019" class="cls-5" d="M427.98,188.532l-2.777,1.616-.006,2.021,2.777-1.605Z" transform="translate(-424.511 -188.532)"/>
        <path id="Path_44020" data-name="Path 44020" class="cls-5" d="M425.236,191.513l-.117,45.276,2.776-1.606.118-45.275Z" transform="translate(-424.549 -187.876)"/>
        <path id="Path_44021" data-name="Path 44021" class="cls-19" d="M426.664,190.436l-1.427.825-.117,45.276,1.545-.893Z" transform="translate(-424.549 -187.624)"/>
      </g>
    </g>
    <path id="Path_44022" data-name="Path 44022" class="cls-20" d="M408.94,181.573l-.117,45.139,24.069,13.918.117-45.139Z" transform="translate(-408.813 -176.581)"/>
    <path id="Path_44023" data-name="Path 44023" class="cls-12" d="M420.719,186.193q-6.017,2.931-11.834,6.149l-.015,5.192c5.486-2.994,10.9-5.939,16.312-8.76Z" transform="translate(-408.79 -174.377)"/>
    <path id="Path_44024" data-name="Path 44024" class="cls-12" d="M432.989,195.676c-8.2,3.433-16.3,7.134-24.134,11.275l-.027,10.357c7.955-3.728,16.034-7.209,24.133-10.652Z" transform="translate(-408.81 -169.853)"/>
    <g id="Group_24437" data-name="Group 24437" transform="translate(1.99 26.713)">
      <path id="Path_44025" data-name="Path 44025" class="cls-9" d="M413.665,200.207c-.021-.053-.065-.093-.1-.09l-.387.031c-.035,0-.049.047-.028.1l.034.092a.188.188,0,0,0,.044.065l.021.015a.069.069,0,0,0,.035.01l.388-.031a.036.036,0,0,0,.034-.03.107.107,0,0,0-.007-.069Z" transform="translate(-408.743 -194.448)"/>
      <path id="Path_44026" data-name="Path 44026" class="cls-9" d="M412.7,200.445l.019.013a.074.074,0,0,0,.037.01l.387-.029a.041.041,0,0,0,.035-.031.117.117,0,0,0-.007-.069l-.035-.092c-.019-.052-.065-.093-.1-.089l-.388.03c-.034,0-.047.047-.027.1l.034.092A.17.17,0,0,0,412.7,200.445Z" transform="translate(-408.993 -194.428)"/>
      <path id="Path_44027" data-name="Path 44027" class="cls-9" d="M419.261,203.327a.111.111,0,0,0-.055-.04.038.038,0,0,0-.046.013l-.035.049a.129.129,0,0,0,.027.131l.347.434a.131.131,0,0,0,.037.034.045.045,0,0,0,.064-.006l.035-.05a.07.07,0,0,0,.007-.059.155.155,0,0,0-.034-.072Z" transform="translate(-405.892 -192.937)"/>
      <path id="Path_44028" data-name="Path 44028" class="cls-9" d="M420.1,204.474l-.035.049a.075.075,0,0,0-.007.061.155.155,0,0,0,.034.072l.347.434a.125.125,0,0,0,.037.033.045.045,0,0,0,.064-.006l.035-.049a.074.074,0,0,0,.007-.061.163.163,0,0,0-.034-.072l-.347-.433C420.166,204.458,420.12,204.446,420.1,204.474Z" transform="translate(-405.445 -192.376)"/>
      <path id="Path_44029" data-name="Path 44029" class="cls-9" d="M420,204.535a.045.045,0,0,0,.064-.006l.035-.05a.076.076,0,0,0,.009-.059.184.184,0,0,0-.035-.072l-.346-.433a.1.1,0,0,0-.056-.041.037.037,0,0,0-.044.013l-.035.05a.123.123,0,0,0,.027.131l.346.433A.13.13,0,0,0,420,204.535Z" transform="translate(-405.669 -192.657)"/>
      <path id="Path_44030" data-name="Path 44030" class="cls-9" d="M416.4,204.652a.163.163,0,0,0,.072.127l.071.041c.041.024.074,0,.074-.043v-.462a.16.16,0,0,0-.074-.127l-.071-.041c-.04-.024-.072,0-.072.043Z" transform="translate(-407.189 -192.53)"/>
      <path id="Path_44031" data-name="Path 44031" class="cls-9" d="M416.47,203.527l.071.04c.041.025.074.006.074-.041v-.462a.16.16,0,0,0-.074-.127l-.071-.041c-.04-.024-.072,0-.072.043v.462A.163.163,0,0,0,416.47,203.527Z" transform="translate(-407.189 -193.127)"/>
      <path id="Path_44032" data-name="Path 44032" class="cls-9" d="M416.4,204.026a.163.163,0,0,0,.072.127l.071.041c.041.024.074,0,.074-.043v-.462a.16.16,0,0,0-.074-.127l-.071-.041c-.04-.024-.072,0-.072.043Z" transform="translate(-407.189 -192.828)"/>
      <path id="Path_44033" data-name="Path 44033" class="cls-9" d="M424.361,204.883a4.526,4.526,0,0,0-2.233-3.373,3.8,3.8,0,0,0-.356-.179A4.112,4.112,0,0,0,420.1,199.2c-.049-.028-.1-.055-.154-.08a3.906,3.906,0,0,0-1.659-2.617c-.762-.44-1.419-.207-1.628.563a2.628,2.628,0,0,0-.329-.233c-.832-.479-1.527-.155-1.669.747a2.845,2.845,0,0,0-.7-.591c-.935-.541-1.7-.046-1.7,1.1a3.879,3.879,0,0,0,1.7,3.062,1.864,1.864,0,0,0,.171.087,4.229,4.229,0,0,0,.267.679l.01.016-.118.01c-.035,0-.049.047-.028.1l.034.09a.18.18,0,0,0,.044.066l.021.015a.055.055,0,0,0,.035.009l.164-.012a3.369,3.369,0,0,0,1.127,1.185,1.559,1.559,0,0,0,.61.213,5.557,5.557,0,0,0,1.919,1.922c.021.012.084.044.154.08v.124a.163.163,0,0,0,.072.127l.071.041c.041.024.074,0,.074-.043v-.139c.858.383,1.579.3,1.889-.227a3.06,3.06,0,0,0,.916.86c.676.391,1.281.253,1.552-.35A1.063,1.063,0,0,0,424.361,204.883Zm-1.48.854a.107.107,0,0,0-.13.064c-.238.529-.771.651-1.359.312a2.684,2.684,0,0,1-.8-.749.378.378,0,0,0-.118-.111.194.194,0,0,0-.052-.022.109.109,0,0,0-.134.047c-.275.47-.936.542-1.716.193-.154-.077-.328-.165-.357-.182a5.141,5.141,0,0,1-1.774-1.771.425.425,0,0,0-.145-.152.2.2,0,0,0-.08-.027,1.34,1.34,0,0,1-.53-.186,2.918,2.918,0,0,1-.988-1.041l-.142-.261a3.551,3.551,0,0,1-.233-.592.457.457,0,0,0-.193-.261l-.024-.013a1.252,1.252,0,0,1-.148-.075,3.413,3.413,0,0,1-1.487-2.7c0-1.016.668-1.456,1.487-.984a2.52,2.52,0,0,1,.61.515.38.38,0,0,0,.092.075.191.191,0,0,0,.1.03.115.115,0,0,0,.109-.111.89.89,0,0,1,1.464-.665,2.208,2.208,0,0,1,.285.2.413.413,0,0,0,.044.031c.092.053.176.031.2-.062.186-.684.759-.885,1.427-.5a3.426,3.426,0,0,1,1.453,2.3.469.469,0,0,0,.205.313l.019.01c.047.022.092.044.134.069a3.667,3.667,0,0,1,1.484,1.894.462.462,0,0,0,.188.241l.027.013a3.451,3.451,0,0,1,.329.167,4.066,4.066,0,0,1,2.025,3.01A.946.946,0,0,1,422.881,205.737Z" transform="translate(-409.161 -196.279)"/>
      <path id="Path_44034" data-name="Path 44034" class="cls-9" d="M414.11,201.61a.74.74,0,0,0-.2-.08,1.737,1.737,0,0,0-.36-.718.037.037,0,0,0,.028-.025.13.13,0,0,0-.007-.069l-.035-.09c-.021-.053-.065-.093-.1-.09l-.182.015-.022-.015-.063-.034a1.6,1.6,0,0,0-.663-.928c-.315-.182-.591-.086-.682.219-.273-.154-.523-.133-.659.047-.028-.019-.056-.037-.086-.053-.5-.291-.914-.136-.914.344a1.728,1.728,0,0,0,.549,1.117,1.565,1.565,0,0,0,.64.851.6.6,0,0,0,.309.093,2.2,2.2,0,0,0,.868.963.89.89,0,0,0,.733.134,1.044,1.044,0,0,0,.207.157c.264.154.508.112.631-.1l.01.007c.394.227.716.021.716-.459A1.631,1.631,0,0,0,414.11,201.61Z" transform="translate(-410.163 -194.749)"/>
      <path id="Path_44035" data-name="Path 44035" class="cls-9" d="M423.673,207.131a.7.7,0,0,0-.2-.08,1.612,1.612,0,0,0-.679-.993c-.022-.012-.043-.024-.064-.032a1.6,1.6,0,0,0-.663-.929c-.315-.182-.591-.086-.682.219a.8.8,0,0,0-.241-.092l-.093-.117c-.035-.043-.08-.056-.1-.028l-.035.05a.08.08,0,0,0-.009.061.17.17,0,0,0,.018.037.374.374,0,0,0-.2.136c-.028-.019-.056-.035-.084-.053-.505-.291-.916-.136-.916.344a1.74,1.74,0,0,0,.548,1.117,1.578,1.578,0,0,0,.64.851.606.606,0,0,0,.31.093,2.2,2.2,0,0,0,.868.963.885.885,0,0,0,.733.134,1.044,1.044,0,0,0,.207.157c.264.154.508.112.631-.1l.01.006c.394.227.716.021.716-.459A1.631,1.631,0,0,0,423.673,207.131Z" transform="translate(-405.601 -192.115)"/>
      <path id="Path_44036" data-name="Path 44036" class="cls-9" d="M418.743,206.694a.732.732,0,0,0-.2-.08,1.62,1.62,0,0,0-.681-.993c-.021-.012-.041-.024-.064-.034a1.591,1.591,0,0,0-.663-.928c-.315-.182-.591-.086-.682.219-.273-.154-.521-.133-.659.047q-.042-.029-.084-.053c-.505-.291-.916-.136-.916.346a1.742,1.742,0,0,0,.549,1.117,1.58,1.58,0,0,0,.64.849.6.6,0,0,0,.31.093,2.187,2.187,0,0,0,.868.963.881.881,0,0,0,.731.134,1.044,1.044,0,0,0,.207.157c.266.154.51.112.632-.1l.009.006c.4.227.716.021.716-.459A1.63,1.63,0,0,0,418.743,206.694Z" transform="translate(-407.953 -192.324)"/>
    </g>
  </g>
  <g id="Group_24506" data-name="Group 24506" transform="translate(106.332 130.199)">
    <g id="Group_24504" data-name="Group 24504">
      <g id="Group_24481" data-name="Group 24481" transform="translate(4.703)">
        <g id="Group_24480" data-name="Group 24480" class="cls-13">
          <g id="Group_24462" data-name="Group 24462" transform="translate(24.154 6.673)">
            <path id="Path_44210" data-name="Path 44210" class="cls-21" d="M411.234,210.388l-9.362-5.44.029,10.172,9.361,5.44Z" transform="translate(-401.873 -204.948)"/>
          </g>
          <g id="Group_24465" data-name="Group 24465" class="cls-13" transform="translate(3.325 16.844)">
            <path id="Path_44211" data-name="Path 44211" class="cls-3" d="M387.77,230l9.361,5.441c2.127,1.235,5.5.885,9.282-1.3,6.4-3.7,11.593-11.261,11.577-16.863l-9.361-5.441c.016,5.6-5.178,13.169-11.577,16.863C393.267,230.882,389.9,231.232,387.77,230Z" transform="translate(-387.77 -211.834)"/>
            <g id="Group_24464" data-name="Group 24464" class="cls-22">
              <g id="Group_24463" data-name="Group 24463" class="cls-13">
                <path id="Path_44212" data-name="Path 44212" class="cls-3" d="M411.263,217.275l-9.361-5.441c0,.261-.01.526-.031.793l9.361,5.44c.022-.267.032-.532.031-.792Z" transform="translate(-381.044 -211.834)"/>
                <path id="Path_44213" data-name="Path 44213" class="cls-3" d="M411.368,217.811l-9.361-5.44a12.367,12.367,0,0,1-.421,2.312l9.361,5.44a12.355,12.355,0,0,0,.421-2.312Z" transform="translate(-381.18 -211.578)"/>
                <path id="Path_44214" data-name="Path 44214" class="cls-3" d="M413.7,219.376l-9.361-5.44c-1.159,4.187-4.434,8.815-8.534,12.007l9.361,5.44c4.1-3.192,7.375-7.819,8.534-12.007Z" transform="translate(-383.936 -210.831)"/>
                <path id="Path_44215" data-name="Path 44215" class="cls-21" d="M406.459,227.5l-9.361-5.44a22.734,22.734,0,0,1-2.591,1.752q-.713.412-1.4.736l9.361,5.441q.689-.326,1.4-.736a22.741,22.741,0,0,0,2.591-1.753Z" transform="translate(-385.226 -206.954)"/>
                <path id="Path_44216" data-name="Path 44216" class="cls-21" d="M403.65,229.19l-9.361-5.441a13.35,13.35,0,0,1-3.669,1.17l9.361,5.44a13.328,13.328,0,0,0,3.669-1.168Z" transform="translate(-386.41 -206.15)"/>
                <path id="Path_44217" data-name="Path 44217" class="cls-21" d="M401.341,230.177l-9.361-5.44a6.412,6.412,0,0,1-4.21-.607l9.361,5.441a6.4,6.4,0,0,0,4.21.606Z" transform="translate(-387.77 -205.969)"/>
              </g>
            </g>
          </g>
          <g id="Group_24468" data-name="Group 24468" class="cls-13" transform="translate(21.801 1.913)">
            <g id="Group_24467" data-name="Group 24467" class="cls-23">
              <g id="Group_24466" data-name="Group 24466">
                <path id="Path_44219" data-name="Path 44219" class="cls-21" d="M409.64,207.166l-9.361-5.441a4.752,4.752,0,0,1,2.257,3.52l9.361,5.44a4.752,4.752,0,0,0-2.257-3.518Z" transform="translate(-400.279 -201.725)"/>
                <path id="Path_44220" data-name="Path 44220" class="cls-21" d="M411.168,209.548l-9.361-5.44a8.025,8.025,0,0,1,.1,1.241l9.361,5.44a8.04,8.04,0,0,0-.1-1.241Z" transform="translate(-399.55 -200.588)"/>
              </g>
            </g>
          </g>
          <g id="Group_24471" data-name="Group 24471" class="cls-13" transform="translate(0.03 30.79)">
            <path id="Path_44222" data-name="Path 44222" class="cls-3" d="M388.17,226.627l9.361,5.44c-1.642-.954-2.623-2.771-2.63-5.351l-9.361-5.44C385.546,223.856,386.527,225.673,388.17,226.627Z" transform="translate(-385.539 -221.276)"/>
            <g id="Group_24470" data-name="Group 24470" class="cls-24">
              <g id="Group_24469" data-name="Group 24469">
                <path id="Path_44223" data-name="Path 44223" class="cls-6" d="M394.9,226.716l-9.361-5.44a8.959,8.959,0,0,0,.109,1.4l9.361,5.44a8.975,8.975,0,0,1-.109-1.4Z" transform="translate(-385.539 -221.276)"/>
                <path id="Path_44224" data-name="Path 44224" class="cls-3" d="M394.974,227.666l-9.361-5.44a5.328,5.328,0,0,0,2.521,3.948l9.361,5.44a5.325,5.325,0,0,1-2.521-3.948Z" transform="translate(-385.504 -220.823)"/>
              </g>
            </g>
          </g>
          <g id="Group_24472" data-name="Group 24472" transform="translate(0.029 30.247)">
            <path id="Path_44226" data-name="Path 44226" class="cls-9" d="M395.842,226.348l-9.362-5.44-.941.543,9.362,5.44Z" transform="translate(-385.539 -220.908)"/>
          </g>
          <g id="Group_24475" data-name="Group 24475" class="cls-13" transform="translate(12.516)">
            <g id="Group_24474" data-name="Group 24474" class="cls-25">
              <g id="Group_24473" data-name="Group 24473" transform="translate(0 0)">
                <path id="Path_44227" data-name="Path 44227" class="cls-6" d="M411.566,206.645l-9.363-5.44a6.95,6.95,0,0,0-4.565-.668L407,205.979a6.948,6.948,0,0,1,4.567.666Z" transform="translate(-392.254 -200.43)"/>
                <path id="Path_44228" data-name="Path 44228" class="cls-6" d="M408.259,205.944,398.9,200.5a14.217,14.217,0,0,0-3.9,1.242l9.363,5.44a14.188,14.188,0,0,1,3.9-1.241Z" transform="translate(-393.514 -200.395)"/>
                <path id="Path_44229" data-name="Path 44229" class="cls-6" d="M404.839,206.784l-9.363-5.44q-.729.343-1.483.778l9.361,5.44q.753-.434,1.484-.778Z" transform="translate(-393.993 -199.994)"/>
              </g>
            </g>
          </g>
          <g id="Group_24478" data-name="Group 24478" class="cls-13" transform="translate(0 2.129)">
            <g id="Group_24477" data-name="Group 24477" class="cls-26">
              <g id="Group_24476" data-name="Group 24476" class="cls-13" transform="translate(0)">
                <path id="Path_44231" data-name="Path 44231" class="cls-6" d="M404.24,207.311l-9.361-5.44a23.94,23.94,0,0,0-2.741,1.854l9.361,5.441a23.9,23.9,0,0,1,2.741-1.855Z" transform="translate(-382.362 -201.871)"/>
                <path id="Path_44232" data-name="Path 44232" class="cls-9" d="M404.49,208.567l-9.361-5.441c-4.437,3.453-7.986,8.512-9.264,13.129l9.361,5.44c1.278-4.617,4.827-9.676,9.264-13.128Z" transform="translate(-385.354 -201.272)"/>
                <path id="Path_44233" data-name="Path 44233" class="cls-6" d="M395.38,217.455l-9.361-5.44a13.9,13.9,0,0,0-.476,2.61l9.361,5.44a14.043,14.043,0,0,1,.476-2.61Z" transform="translate(-385.508 -197.032)"/>
                <path id="Path_44234" data-name="Path 44234" class="cls-6" d="M394.916,219.222l-9.361-5.44c-.024.3-.035.6-.035.9l9.361,5.441q0-.443.035-.9Z" transform="translate(-385.519 -196.189)"/>
              </g>
            </g>
          </g>
          <g id="Group_24479" data-name="Group 24479" transform="translate(9.361 5.44)">
            <path id="Path_44236" data-name="Path 44236" class="cls-5" d="M404.373,206.241c-6.918,3.994-12.534,12.289-12.516,18.491l.942-.544c-.016-5.6,5.177-13.169,11.577-16.863s11.62-2.143,11.636,3.461l.028,10.172c.016,5.6-5.178,13.168-11.577,16.863s-11.62,2.142-11.636-3.462l-.941.544c.018,6.2,5.661,7.994,12.58,4s12.535-12.29,12.518-18.489l-.029-10.172C416.937,204.041,411.293,202.246,404.373,206.241Z" transform="translate(-391.857 -204.113)"/>
          </g>
        </g>
      </g>
      <g id="Group_24503" data-name="Group 24503" transform="translate(0 9.614)">
        <g id="Group_24502" data-name="Group 24502" class="cls-13">
          <g id="Group_24484" data-name="Group 24484" transform="translate(16.407 25.41)">
            <path id="Path_44237" data-name="Path 44237" class="cls-5" d="M393.443,228.036l3.746-2.176a1.875,1.875,0,0,0,.784-1.718l-3.744,2.177A1.875,1.875,0,0,1,393.443,228.036Z" transform="translate(-393.443 -224.143)"/>
            <g id="Group_24483" data-name="Group 24483" class="cls-27">
              <g id="Group_24482" data-name="Group 24482" class="cls-13">
                <path id="Path_44238" data-name="Path 44238" class="cls-5" d="M393.443,228.036l3.746-2.176a1.875,1.875,0,0,0,.784-1.718l-3.744,2.177a1.875,1.875,0,0,1-.786,1.716Z" transform="translate(-393.443 -224.143)"/>
              </g>
            </g>
          </g>
          <g id="Group_24487" data-name="Group 24487" transform="translate(0.824)">
            <path id="Path_44240" data-name="Path 44240" class="cls-6" d="M386.637,207.122l-3.744,2.176a1.89,1.89,0,0,1,1.908.183l3.746-2.176A1.89,1.89,0,0,0,386.637,207.122Z" transform="translate(-382.893 -206.939)"/>
            <g id="Group_24486" data-name="Group 24486" class="cls-28">
              <g id="Group_24485" data-name="Group 24485" class="cls-13" transform="translate(0 0)">
                <path id="Path_44241" data-name="Path 44241" class="cls-6" d="M384.447,209.467l3.746-2.176a2.787,2.787,0,0,0-.812-.323l-3.744,2.176a2.822,2.822,0,0,1,.811.323Z" transform="translate(-382.539 -206.926)"/>
                <path id="Path_44242" data-name="Path 44242" class="cls-6" d="M383.975,209.157l3.744-2.176a1.532,1.532,0,0,0-1.049.114l-3.746,2.176a1.537,1.537,0,0,1,1.05-.114Z" transform="translate(-382.878 -206.939)"/>
                <path id="Path_44243" data-name="Path 44243" class="cls-6" d="M382.94,209.221l3.746-2.176-.049.027-3.744,2.176.047-.027Z" transform="translate(-382.893 -206.889)"/>
              </g>
            </g>
          </g>
          <g id="Group_24488" data-name="Group 24488" transform="translate(17.192 11.825)">
            <path id="Path_44245" data-name="Path 44245" class="cls-5" d="M393.975,230.707l3.745-2.176.039-13.586-3.745,2.176Z" transform="translate(-393.975 -214.945)"/>
          </g>
          <g id="Group_24489" data-name="Group 24489" transform="translate(2.733 0.366)">
            <path id="Path_44246" data-name="Path 44246" class="cls-6" d="M396.009,216.189l3.745-2.176-11.823-6.826-3.745,2.176Z" transform="translate(-384.185 -207.187)"/>
          </g>
          <g id="Group_24492" data-name="Group 24492" transform="translate(14.556 7.193)">
            <path id="Path_44247" data-name="Path 44247" class="cls-5" d="M394.865,218.617l3.744-2.176a5.91,5.91,0,0,0-2.673-4.632l-3.746,2.176A5.918,5.918,0,0,1,394.865,218.617Z" transform="translate(-392.19 -211.809)"/>
            <g id="Group_24491" data-name="Group 24491" class="cls-29">
              <g id="Group_24490" data-name="Group 24490" class="cls-13">
                <path id="Path_44248" data-name="Path 44248" class="cls-5" d="M394.154,217.775,397.9,215.6a5.035,5.035,0,0,0-.473-2.026l-3.744,2.177a5.052,5.052,0,0,1,.473,2.025Z" transform="translate(-391.479 -210.968)"/>
                <path id="Path_44249" data-name="Path 44249" class="cls-5" d="M393.974,216.226l3.744-2.177a6.539,6.539,0,0,0-.908-1.474l-3.744,2.177a6.522,6.522,0,0,1,.908,1.474Z" transform="translate(-391.772 -211.444)"/>
                <path id="Path_44250" data-name="Path 44250" class="cls-6" d="M393.484,215.117l3.744-2.177a4.874,4.874,0,0,0-1.292-1.131l-3.746,2.176a4.836,4.836,0,0,1,1.294,1.133Z" transform="translate(-392.19 -211.809)"/>
              </g>
            </g>
          </g>
          <g id="Group_24501" data-name="Group 24501" transform="translate(0 2.176)">
            <path id="Path_44252" data-name="Path 44252" class="cls-9" d="M385.067,208.778c-1.477-.852-2.688-.162-2.693,1.533l-.04,13.587a5.918,5.918,0,0,0,2.676,4.632l11.823,6.827c1.475.852,2.688.162,2.693-1.533l.038-13.587a5.918,5.918,0,0,0-2.675-4.632Z" transform="translate(-382.335 -208.413)"/>
            <path id="Path_44253" data-name="Path 44253" class="cls-30" d="M382.874,223.643a5.1,5.1,0,0,0,2.279,3.939l11.825,6.827a1.677,1.677,0,0,0,.8.258.58.58,0,0,0,.549-.349,1.773,1.773,0,0,0,.149-.758l.037-13.584a5.1,5.1,0,0,0-2.275-3.941l-11.823-6.827a2.12,2.12,0,0,0-.555-.229,1.264,1.264,0,0,0-.247-.028c-.6,0-.7.69-.7,1.1Z" transform="translate(-382.078 -208.155)"/>
            <path id="Path_44254" data-name="Path 44254" class="cls-31" d="M383.414,223.312a5.1,5.1,0,0,0,2.279,3.942l11.825,6.827a2.047,2.047,0,0,0,.549.229,1.774,1.774,0,0,0,.149-.758l.037-13.584a5.1,5.1,0,0,0-2.275-3.941L384.155,209.2a2.12,2.12,0,0,0-.555-.229,1.737,1.737,0,0,0-.146.755Z" transform="translate(-381.82 -208.146)"/>
            <g id="Group_24494" data-name="Group 24494" transform="translate(10.781 6.538)">
              <path id="Path_44255" data-name="Path 44255" class="cls-9" d="M390.191,213.743c-.024-.033-.024-.062,0-.066l.612-.12c.024,0,.044.018.044.052v.959c0,.033-.021.034-.044,0Z" transform="translate(-389.377 -212.497)"/>
              <path id="Path_44256" data-name="Path 44256" class="cls-9" d="M390.3,213.654a.112.112,0,0,1,.087.05l.61.826c.025.033.021.044-.007.028l-1.292-.746c-.029-.016-.033-.034-.009-.038Z" transform="translate(-389.613 -212.451)"/>
              <path id="Path_44257" data-name="Path 44257" class="cls-9" d="M390.288,213.849c.024.032.024.064,0,.068l-.612.12c-.024,0-.043-.019-.043-.052v-.959c0-.034.019-.034.043,0Z" transform="translate(-389.634 -212.762)"/>
              <g id="Group_24493" data-name="Group 24493" transform="translate(0.062 0.079)">
                <path id="Path_44258" data-name="Path 44258" class="cls-9" d="M390.045,212.9l.015,0a.285.285,0,0,1,.225.13l.016.022Z" transform="translate(-389.5 -212.893)"/>
                <path id="Path_44259" data-name="Path 44259" class="cls-9" d="M390.465,213.331l.09.121h0l.047.063.025.033c.024.033.024.063,0,.068l-.162.031Z" transform="translate(-389.3 -212.684)"/>
                <path id="Path_44260" data-name="Path 44260" class="cls-9" d="M389.694,212.976l.024,0,.055-.01.015,0,.068-.013v.316l-.161-.217C389.67,213.011,389.67,212.98,389.694,212.976Z" transform="translate(-389.676 -212.868)"/>
              </g>
              <path id="Path_44261" data-name="Path 44261" class="cls-9" d="M389.828,212.914v.461l.4.544a.11.11,0,0,0,.087.052l.4-.08v-.461a.229.229,0,0,0-.1-.18l-.145-.084-.394-.227-.146-.084C389.875,212.82,389.828,212.848,389.828,212.914Zm.089.406.715.414v.068l-.715-.412Zm0-.158.715.414v.068l-.715-.412Zm0-.158.715.412v.069l-.715-.412Z" transform="translate(-389.541 -212.839)"/>
            </g>
            <g id="Group_24499" data-name="Group 24499" transform="translate(2.446 1.897)">
              <g id="Group_24495" data-name="Group 24495" transform="translate(0.778 1.417)">
                <path id="Path_44262" data-name="Path 44262" class="cls-16" d="M384.691,210.68c-.095-.055-.173-.01-.173.1a.379.379,0,0,0,.171.3c.094.055.171.01.173-.1A.379.379,0,0,0,384.691,210.68Z" transform="translate(-384.518 -210.656)"/>
              </g>
              <g id="Group_24496" data-name="Group 24496" transform="translate(0.518 0.969)">
                <path id="Path_44263" data-name="Path 44263" class="cls-16" d="M384.772,210.428a.533.533,0,0,0-.219-.074.294.294,0,0,0-.177.037c-.046.027-.046.114,0,.193a.225.225,0,0,0,.083.087.084.084,0,0,0,.084.009.168.168,0,0,1,.1-.022.328.328,0,0,1,.124.043.535.535,0,0,1,.124.1.677.677,0,0,1,.1.137.237.237,0,0,0,.084.09.082.082,0,0,0,.083.009c.047-.025.049-.112,0-.192a1.377,1.377,0,0,0-.177-.242A1.013,1.013,0,0,0,384.772,210.428Z" transform="translate(-384.342 -210.353)"/>
              </g>
              <g id="Group_24497" data-name="Group 24497" transform="translate(0.252 0.483)">
                <path id="Path_44264" data-name="Path 44264" class="cls-16" d="M384.859,210.151a.92.92,0,0,0-.365-.126.509.509,0,0,0-.3.061c-.046.027-.046.114,0,.193a.245.245,0,0,0,.084.089.087.087,0,0,0,.084.007.369.369,0,0,1,.222-.044.656.656,0,0,1,.272.093,1.186,1.186,0,0,1,.272.22,1.744,1.744,0,0,1,.222.3.227.227,0,0,0,.084.09.089.089,0,0,0,.083.009c.047-.027.047-.114,0-.193a2.188,2.188,0,0,0-.3-.4A1.62,1.62,0,0,0,384.859,210.151Z" transform="translate(-384.162 -210.024)"/>
              </g>
              <g id="Group_24498" data-name="Group 24498">
                <path id="Path_44265" data-name="Path 44265" class="cls-16" d="M384.941,209.874a1.245,1.245,0,0,0-.5-.174.685.685,0,0,0-.411.083c-.047.027-.047.114,0,.193a.241.241,0,0,0,.083.089.081.081,0,0,0,.084.007.564.564,0,0,1,.337-.066.982.982,0,0,1,.411.142,1.8,1.8,0,0,1,.411.332,2.452,2.452,0,0,1,.334.455.25.25,0,0,0,.084.09.088.088,0,0,0,.084.007c.046-.027.047-.112,0-.192a2.966,2.966,0,0,0-.409-.558A2.235,2.235,0,0,0,384.941,209.874Z" transform="translate(-383.991 -209.697)"/>
              </g>
            </g>
            <g id="Group_24500" data-name="Group 24500" transform="translate(12.86 7.885)">
              <path id="Path_44266" data-name="Path 44266" class="cls-9" d="M392.774,214.925l-.158-.137v.772l-.158-.092v-.953l.157.09.16.2Z" transform="translate(-390.367 -213.386)"/>
              <path id="Path_44267" data-name="Path 44267" class="cls-9" d="M392.491,214.762l-.158-.137v.771l-.158-.09v-.953l.157.09.16.2Z" transform="translate(-390.501 -213.464)"/>
              <path id="Path_44268" data-name="Path 44268" class="cls-9" d="M392.129,214.648c0,.019-.012.024-.028.015l-.1-.056a.048.048,0,0,1-.028-.046v-.117c0-.021.007-.028.028-.016l.1.056a.052.052,0,0,1,.028.047Zm0,.512c0,.019-.012.024-.028.015l-.1-.056a.05.05,0,0,1-.028-.046v-.118c0-.021.007-.028.028-.016l.1.056a.054.054,0,0,1,.028.049Z" transform="translate(-390.596 -213.431)"/>
              <path id="Path_44269" data-name="Path 44269" class="cls-9" d="M392.095,214.445l-.3-.174c-.059-.034-.111-.049-.111.027v.046c0,.069.033.109.111.158l.225.142v.148l-.225-.121c-.066-.035-.109-.043-.109.037v.04c0,.083.041.112.117.157l.285.164v.134a1.3,1.3,0,0,1-.35-.165.4.4,0,0,1-.211-.356v-.055c0-.1.025-.151.086-.145a.318.318,0,0,1-.086-.235v-.068c0-.139.08-.18.2-.111a1.666,1.666,0,0,1,.365.247Z" transform="translate(-390.811 -213.616)"/>
              <path id="Path_44270" data-name="Path 44270" class="cls-9" d="M391.634,214.735c0,.157-.081.186-.207.114l-.185-.106a.387.387,0,0,1-.2-.349v-.487c0-.126.047-.205.2-.118l.185.108a.409.409,0,0,1,.208.359Zm-.158-.12v-.43a.158.158,0,0,0-.081-.14l-.118-.068c-.055-.031-.077-.012-.077.049v.43a.146.146,0,0,0,.081.14l.109.064C391.429,214.681,391.476,214.695,391.476,214.615Z" transform="translate(-391.042 -213.751)"/>
            </g>
          </g>
        </g>
      </g>
    </g>
    <g id="Group_24505" data-name="Group 24505" transform="translate(2.665 17.125)">
      <path id="Path_44271" data-name="Path 44271" class="cls-1" d="M386.746,222.486a.159.159,0,0,1-.078-.027l-2.252-1.3a.68.68,0,0,1-.276-.538v-2.6c0-.086.025-.186.095-.186a.175.175,0,0,1,.08.027l2.252,1.3a.689.689,0,0,1,.276.539v2.6C386.842,222.386,386.817,222.486,386.746,222.486Z" transform="translate(-384.139 -209.251)"/>
      <path id="Path_44272" data-name="Path 44272" class="cls-1" d="M389.992,224.368a.176.176,0,0,1-.08-.025l-2.251-1.3a.686.686,0,0,1-.278-.539v-2.6c0-.084.025-.185.1-.185a.166.166,0,0,1,.078.025l2.252,1.3a.681.681,0,0,1,.278.538v2.6C390.088,224.269,390.063,224.368,389.992,224.368Z" transform="translate(-382.591 -208.352)"/>
      <path id="Path_44273" data-name="Path 44273" class="cls-1" d="M393.237,226.251a.166.166,0,0,1-.078-.025l-2.253-1.3a.683.683,0,0,1-.278-.538v-2.6c0-.086.025-.185.1-.185a.176.176,0,0,1,.08.025l2.251,1.3a.686.686,0,0,1,.278.539v2.6C393.333,226.15,393.308,226.251,393.237,226.251Z" transform="translate(-381.043 -207.454)"/>
      <path id="Path_44274" data-name="Path 44274" class="cls-1" d="M386.746,219.578a.171.171,0,0,1-.078-.025l-2.252-1.3a.685.685,0,0,1-.276-.539v-2.6c0-.084.025-.185.095-.185a.159.159,0,0,1,.08.027l2.252,1.3a.684.684,0,0,1,.276.538v2.6C386.842,219.479,386.817,219.578,386.746,219.578Z" transform="translate(-384.139 -210.637)"/>
      <path id="Path_44275" data-name="Path 44275" class="cls-1" d="M389.992,221.461a.176.176,0,0,1-.08-.025l-2.251-1.3a.683.683,0,0,1-.278-.538V217c0-.086.025-.185.1-.185a.166.166,0,0,1,.078.025l2.252,1.3a.686.686,0,0,1,.278.539v2.6C390.088,221.36,390.063,221.461,389.992,221.461Z" transform="translate(-382.591 -209.739)"/>
      <path id="Path_44276" data-name="Path 44276" class="cls-1" d="M393.237,223.343a.165.165,0,0,1-.078-.025l-2.253-1.3a.686.686,0,0,1-.278-.539v-2.6c0-.086.025-.186.1-.186a.163.163,0,0,1,.08.027l2.251,1.3a.683.683,0,0,1,.278.538v2.6C393.333,223.244,393.308,223.343,393.237,223.343Z" transform="translate(-381.043 -208.841)"/>
      <path id="Path_44277" data-name="Path 44277" class="cls-1" d="M386.746,216.671a.171.171,0,0,1-.078-.025l-2.252-1.3a.68.68,0,0,1-.276-.538v-2.6c0-.086.025-.185.095-.185a.171.171,0,0,1,.08.025l2.252,1.3a.689.689,0,0,1,.276.539v2.6C386.842,216.57,386.817,216.671,386.746,216.671Z" transform="translate(-384.139 -212.024)"/>
      <path id="Path_44278" data-name="Path 44278" class="cls-1" d="M389.992,218.553a.16.16,0,0,1-.08-.025l-2.251-1.3a.686.686,0,0,1-.278-.539v-2.6c0-.086.025-.186.1-.186a.166.166,0,0,1,.078.025l2.252,1.3a.683.683,0,0,1,.278.538v2.6C390.088,218.454,390.063,218.553,389.992,218.553Z" transform="translate(-382.591 -211.126)"/>
      <path id="Path_44279" data-name="Path 44279" class="cls-1" d="M393.237,220.436a.165.165,0,0,1-.078-.025l-2.253-1.3a.681.681,0,0,1-.278-.538v-2.6c0-.086.025-.185.1-.185a.176.176,0,0,1,.08.025l2.251,1.3a.686.686,0,0,1,.278.539v2.6C393.333,220.337,393.308,220.436,393.237,220.436Z" transform="translate(-381.043 -210.228)"/>
    </g>
  </g>
  <g id="Group_24937" data-name="Group 24937" transform="matrix(0.921, -0.391, 0.391, 0.921, 0, 131.724)">
    <g id="Group_24851" data-name="Group 24851">
      <g id="Group_24845" data-name="Group 24845">
        <g id="Group_24844" data-name="Group 24844" class="cls-13">
          <g id="Group_24830" data-name="Group 24830" transform="translate(0 13.782)">
            <path id="Path_44797" data-name="Path 44797" class="cls-5" d="M242.193,297.867l.009,3.338a1.389,1.389,0,0,0,.81,1.138L243,299A1.386,1.386,0,0,1,242.193,297.867Z" transform="translate(-242.193 -297.867)"/>
            <g id="Group_24829" data-name="Group 24829" class="cls-32">
              <g id="Group_24828" data-name="Group 24828" class="cls-13">
                <path id="Path_44798" data-name="Path 44798" class="cls-5" d="M242.193,297.867l.009,3.338a1.389,1.389,0,0,0,.81,1.138L243,299a1.386,1.386,0,0,1-.809-1.138Z" transform="translate(-242.193 -297.867)"/>
              </g>
            </g>
          </g>
          <g id="Group_24833" data-name="Group 24833" transform="translate(66.424 25.19)">
            <path id="Path_44800" data-name="Path 44800" class="cls-5" d="M280.16,307.583l-.009-3.338a1.4,1.4,0,0,1-.823,1.154l.009,3.338A1.4,1.4,0,0,0,280.16,307.583Z" transform="translate(-279.328 -304.245)"/>
            <g id="Group_24832" data-name="Group 24832" class="cls-33">
              <g id="Group_24831" data-name="Group 24831" class="cls-13">
                <path id="Path_44801" data-name="Path 44801" class="cls-5" d="M279.328,305.4l.009,3.338a1.4,1.4,0,0,0,.823-1.154l-.009-3.338a1.4,1.4,0,0,1-.823,1.154Z" transform="translate(-279.328 -304.245)"/>
              </g>
            </g>
          </g>
          <g id="Group_24835" data-name="Group 24835" transform="translate(0.809 14.919)">
            <g id="Group_24834" data-name="Group 24834">
              <path id="Path_44803" data-name="Path 44803" class="cls-5" d="M242.645,298.5l.009,3.338,40.606,23.578-.009-3.338Z" transform="translate(-242.645 -298.503)"/>
            </g>
          </g>
          <g id="Group_24837" data-name="Group 24837" transform="translate(45.373 26.344)">
            <g id="Group_24836" data-name="Group 24836">
              <path id="Path_44804" data-name="Path 44804" class="cls-5" d="M267.559,317.044l.01,3.338,21.05-12.154-.01-3.338Z" transform="translate(-267.559 -304.89)"/>
            </g>
          </g>
          <g id="Group_24841" data-name="Group 24841" transform="translate(41.416 38.498)">
            <g id="Group_24840" data-name="Group 24840">
              <path id="Path_44805" data-name="Path 44805" class="cls-5" d="M265.347,311.685l.009,3.338a4.384,4.384,0,0,0,3.958,0l-.011-3.338A4.381,4.381,0,0,1,265.347,311.685Z" transform="translate(-265.347 -311.685)"/>
              <g id="Group_24839" data-name="Group 24839" class="cls-34">
                <g id="Group_24838" data-name="Group 24838">
                  <path id="Path_44806" data-name="Path 44806" class="cls-5" d="M265.347,311.685l.009,3.338a4.384,4.384,0,0,0,3.958,0l-.011-3.338a4.381,4.381,0,0,1-3.957,0Z" transform="translate(-265.347 -311.685)"/>
                </g>
              </g>
            </g>
          </g>
          <g id="Group_24843" data-name="Group 24843">
            <path id="Path_44808" data-name="Path 44808" class="cls-35" d="M268.79,291.079l-25.021,14.446,34.285,19.908,25.021-14.446Z" transform="translate(-240.95 -289.439)"/>
            <g id="Group_24842" data-name="Group 24842" transform="translate(12.958 7.514)">
              <path id="Path_44809" data-name="Path 44809" class="cls-36" d="M267.825,302.739l4.674,2.838,4.433-2.421-4.674-2.838Z" transform="translate(-234.935 -289.666)"/>
              <path id="Path_44810" data-name="Path 44810" class="cls-36" d="M262.92,299.761l4.674,2.838,4.433-2.42-4.674-2.838Z" transform="translate(-238.804 -292.014)"/>
              <path id="Path_44811" data-name="Path 44811" class="cls-36" d="M258.015,296.783l4.674,2.838,4.433-2.42-4.674-2.838Z" transform="translate(-242.672 -294.363)"/>
              <path id="Path_44812" data-name="Path 44812" class="cls-36" d="M263.51,305.095l4.674,2.838,4.433-2.42-4.674-2.838Z" transform="translate(-238.338 -287.808)"/>
              <path id="Path_44813" data-name="Path 44813" class="cls-36" d="M258.606,302.117l4.674,2.838,4.433-2.42-4.674-2.838Z" transform="translate(-242.206 -290.157)"/>
              <path id="Path_44814" data-name="Path 44814" class="cls-36" d="M253.7,299.139l4.674,2.838,4.433-2.421-4.674-2.838Z" transform="translate(-246.075 -292.505)"/>
              <path id="Path_44815" data-name="Path 44815" class="cls-36" d="M259.247,307.422l4.674,2.838,4.433-2.42L263.68,305Z" transform="translate(-241.7 -285.972)"/>
              <path id="Path_44816" data-name="Path 44816" class="cls-36" d="M254.342,304.445l4.674,2.838,4.433-2.42-4.674-2.838Z" transform="translate(-245.569 -288.321)"/>
              <path id="Path_44817" data-name="Path 44817" class="cls-36" d="M249.437,301.467l4.674,2.838,4.433-2.42-4.674-2.838Z" transform="translate(-249.437 -290.669)"/>
            </g>
            <path id="Path_44818" data-name="Path 44818" class="cls-9" d="M268.024,290.636a4.373,4.373,0,0,0-3.958,0l-21.05,12.153a1.214,1.214,0,0,0-.014,2.293l2.01,1.166L270.033,291.8Z" transform="translate(-242.193 -290.162)"/>
            <path id="Path_44819" data-name="Path 44819" class="cls-9" d="M292.269,304.711l-4.311-2.5-25.022,14.446,4.313,2.5a4.381,4.381,0,0,0,3.957,0L292.257,307A1.214,1.214,0,0,0,292.269,304.711Z" transform="translate(-225.833 -280.661)"/>
          </g>
        </g>
      </g>
      <path id="Path_44820" data-name="Path 44820" class="cls-37" d="M275.855,308.3l-2.781,1.749a3.045,3.045,0,0,1-2.792.111.857.857,0,0,1-.045-1.621l2.79-1.762a3.02,3.02,0,0,1,2.785-.1c.791.417.807,1.143.043,1.624Z" transform="translate(-220.513 -277.368)"/>
      <g id="Group_24847" data-name="Group 24847" transform="translate(61.993 28.687)">
        <path id="Path_44821" data-name="Path 44821" class="cls-9" d="M276.851,309.13l2.2-1.377V306.2l-2.2,1.377Z" transform="translate(-276.851 -306.2)"/>
        <path id="Path_44822" data-name="Path 44822" class="cls-38" d="M278.562,306.923l-1.661,1.066v.414l2.019-1.273h0Z" transform="translate(-276.811 -305.63)"/>
        <g id="Group_24846" data-name="Group 24846" transform="translate(0.09 0.156)">
          <path id="Path_44823" data-name="Path 44823" class="cls-39" d="M276.9,307.469v.931l1.661-1.067V306.4l-.089.051Z" transform="translate(-276.901 -306.196)"/>
          <path id="Path_44824" data-name="Path 44824" class="cls-40" d="M276.9,307.525v.659l1.571-1.016v-.659Z" transform="translate(-276.901 -306.112)"/>
          <path id="Path_44825" data-name="Path 44825" class="cls-41" d="M278.187,307.218v-.93l-.358.206v.931l.358.206Z" transform="translate(-276.169 -306.287)"/>
        </g>
      </g>
      <g id="Group_24848" data-name="Group 24848" transform="translate(64.813 27.747)">
        <path id="Path_44826" data-name="Path 44826" class="cls-39" d="M279.718,306.24a1.555,1.555,0,0,1-.646,1.236c-.358.206-.646-.014-.646-.488a1.547,1.547,0,0,1,.646-1.236C279.429,305.546,279.718,305.765,279.718,306.24Z" transform="translate(-278.427 -305.675)"/>
        <path id="Path_44827" data-name="Path 44827" class="cls-38" d="M278.495,307.122a1.548,1.548,0,0,0,.646-1.234.943.943,0,0,0-.013-.165c.327-.148.585.068.585.515a1.554,1.554,0,0,1-.646,1.236c-.313.181-.574.034-.633-.326A.568.568,0,0,0,278.495,307.122Z" transform="translate(-278.422 -305.673)"/>
        <path id="Path_44828" data-name="Path 44828" class="cls-5" d="M278.829,307.371a1.548,1.548,0,0,0,.646-1.234.645.645,0,0,0-.148-.456c.195.036.327.234.327.555a1.555,1.555,0,0,1-.646,1.236.382.382,0,0,1-.5-.032A.46.46,0,0,0,278.829,307.371Z" transform="translate(-278.362 -305.67)"/>
      </g>
      <g id="Group_24849" data-name="Group 24849" transform="translate(9.958 5.584)">
        <path id="Path_44829" data-name="Path 44829" class="cls-5" d="M247.812,297.337a.54.54,0,0,0,.22.207,1.37,1.37,0,0,0,1.27-.046l5.309-3.331a.55.55,0,0,0,.2-.2c.111-.193.036-.4-.225-.546a1.371,1.371,0,0,0-1.275.05l-5.295,3.34C247.77,296.96,247.7,297.162,247.812,297.337Z" transform="translate(-247.76 -293.284)"/>
        <path id="Path_44830" data-name="Path 44830" class="cls-42" d="M247.789,297.191a.54.54,0,0,0,.22.207,1.37,1.37,0,0,0,1.27-.046l5.309-3.331a.55.55,0,0,0,.2-.2.5.5,0,0,0-.225-.215,1.377,1.377,0,0,0-1.275.05l-5.295,3.34A.525.525,0,0,0,247.789,297.191Z" transform="translate(-247.738 -293.138)"/>
      </g>
      <g id="Group_24850" data-name="Group 24850" transform="translate(2.221 12.619)">
        <path id="Path_44831" data-name="Path 44831" class="cls-42" d="M243.437,297.973a.631.631,0,0,0,.358.479,1.966,1.966,0,0,0,1.776,0,.817.817,0,0,0,.263-.227c.193-.27.106-.581-.263-.8a1.978,1.978,0,0,0-1.776,0A.579.579,0,0,0,243.437,297.973Z" transform="translate(-243.434 -297.217)"/>
      </g>
    </g>
    <path id="Path_44832" data-name="Path 44832" class="cls-43" d="M243.769,299.155v1.718l34.285,19.908v-1.718Z" transform="translate(-240.95 -283.069)"/>
    <path id="Path_44833" data-name="Path 44833" class="cls-44" d="M268.79,291.079l-25.021,14.446,3.307,1.92L272.1,293Z" transform="translate(-240.95 -289.439)"/>
    <g id="Group_24859" data-name="Group 24859" transform="translate(5.233 6.102)">
      <g id="Group_24855" data-name="Group 24855" transform="translate(0 5.358)">
        <g id="Group_24852" data-name="Group 24852" transform="translate(5.214)">
          <path id="Path_44834" data-name="Path 44834" class="cls-9" d="M248.034,298.077l2.612-1.508,1.206.7-2.612,1.508Zm2.612-1.424-2.467,1.424,1.061.612,2.465-1.424Z" transform="translate(-248.034 -296.569)"/>
        </g>
        <path id="Path_44835" data-name="Path 44835" class="cls-9" d="M248.075,297.859l1.132.654,1.756-1.014-1.132-.654Z" transform="translate(-242.787 -296.351)"/>
        <g id="Group_24853" data-name="Group 24853" transform="translate(0 4.151)">
          <path id="Path_44836" data-name="Path 44836" class="cls-9" d="M246.1,299.111l.383-.221.419.242-.383.222Z" transform="translate(-244.347 -298.89)"/>
          <path id="Path_44837" data-name="Path 44837" class="cls-9" d="M245.609,299.164l.383-.221.774.447-.383.221Z" transform="translate(-244.732 -298.848)"/>
          <path id="Path_44838" data-name="Path 44838" class="cls-9" d="M245.119,299.216l.384-.221,1.132.654-.383.221Z" transform="translate(-245.119 -298.807)"/>
        </g>
        <g id="Group_24854" data-name="Group 24854" transform="translate(2.428 1.746)">
          <path id="Path_44839" data-name="Path 44839" class="cls-9" d="M248.784,297.736c.458.263.445.388.281.483l-.211.122a.449.449,0,0,1-.479.011l-.17-.1c-.129-.075-.195-.161.007-.277a2.582,2.582,0,0,1,.356-.17c-.118-.066-.324-.166-.456-.091l-.385.222-.127-.073a2.618,2.618,0,0,1,.426-.277C248.156,297.518,248.4,297.514,248.784,297.736Zm-.093.14-.3.173c-.061.036-.082.07,0,.116l.129.073a.173.173,0,0,0,.2,0l.148-.086C249.006,298.071,248.832,297.958,248.691,297.876Z" transform="translate(-245.589 -297.545)"/>
          <path id="Path_44840" data-name="Path 44840" class="cls-9" d="M247.964,297.853l-.517.3,1.249.322-.188.109-1.343-.352-.034-.079.676-.39Z" transform="translate(-245.96 -297.374)"/>
          <path id="Path_44841" data-name="Path 44841" class="cls-9" d="M248.309,298.765l-.134.077-1.7-.243.129-.075Zm-.433-.549c.123.072.14.134,0,.216l-.147.084a.334.334,0,0,1-.379,0l-.182-.106c-.123-.07-.14-.134,0-.216l.147-.084a.334.334,0,0,1,.377,0Zm-.14.063-.152-.088a.129.129,0,0,0-.157,0l-.122.07c-.055.034-.063.054,0,.089l.152.088a.129.129,0,0,0,.157,0l.122-.07C247.8,298.332,247.794,298.312,247.737,298.278Zm-.118.667c.123.07.14.134,0,.216l-.147.084a.337.337,0,0,1-.379,0l-.182-.106c-.123-.072-.14-.136,0-.216l.147-.086a.334.334,0,0,1,.377,0Zm-.139.063-.152-.088a.126.126,0,0,0-.157,0l-.122.07c-.055.032-.063.052,0,.089l.152.088a.126.126,0,0,0,.157,0l.122-.068C247.54,299.062,247.537,299.04,247.48,299.008Z" transform="translate(-246.476 -297.144)"/>
        </g>
      </g>
      <g id="Group_24857" data-name="Group 24857" transform="translate(9.13 3.448)">
        <path id="Path_44842" data-name="Path 44842" class="cls-9" d="M251.837,296.129a.579.579,0,0,0-.526,0,.16.16,0,0,0,0,.3.58.58,0,0,0,.526,0A.161.161,0,0,0,251.837,296.129Z" transform="translate(-249.451 -295.056)"/>
        <g id="Group_24856" data-name="Group 24856">
          <path id="Path_44843" data-name="Path 44843" class="cls-9" d="M251.337,296.143a1.166,1.166,0,0,1,.567-.136v-.15a1.542,1.542,0,0,0-.753.179.528.528,0,0,0-.311.435h.261A.4.4,0,0,1,251.337,296.143Z" transform="translate(-249.736 -295.22)"/>
          <path id="Path_44844" data-name="Path 44844" class="cls-9" d="M251.182,296.055a1.991,1.991,0,0,1,.977-.233v-.152a2.387,2.387,0,0,0-1.163.277.818.818,0,0,0-.479.671h.261A.685.685,0,0,1,251.182,296.055Z" transform="translate(-249.991 -295.368)"/>
          <path id="Path_44845" data-name="Path 44845" class="cls-9" d="M251.042,295.973a2.759,2.759,0,0,1,1.349-.322v-.15a3.138,3.138,0,0,0-1.533.365,1.078,1.078,0,0,0-.635.885h.261A.948.948,0,0,1,251.042,295.973Z" transform="translate(-250.223 -295.501)"/>
        </g>
      </g>
      <g id="envelope" transform="translate(13.704)">
        <g id="envelope-2" data-name="envelope">
          <g id="Group_24858" data-name="Group 24858" transform="translate(0.054 0.031)">
            <path id="Path_44846" data-name="Path 44846" class="cls-9" d="M254.4,295.533l-1.585-.916,2.1-.2Z" transform="translate(-252.81 -292.936)"/>
            <path id="Path_44847" data-name="Path 44847" class="cls-9" d="M254.248,294.8l.341-1.211,1.585.915Z" transform="translate(-251.676 -293.591)"/>
          </g>
          <path id="Path_44848" data-name="Path 44848" class="cls-9" d="M254.594,294.621l.055-.2,1.988-.3-2.912,1.681.528-1.148Z" transform="translate(-252.035 -293.143)"/>
          <path id="Path_44849" data-name="Path 44849" class="cls-9" d="M252.78,295.255l2.912-1.681-.407,1.447Z" transform="translate(-252.78 -293.573)"/>
        </g>
      </g>
    </g>
    <g id="Group_24860" data-name="Group 24860" transform="translate(23.886 2.874)">
      <path id="Path_44850" data-name="Path 44850" class="cls-9" d="M258.481,291.876l-.358.123,1.207.7-.284.165-1.49-.86.283-.163.456-.07Z" transform="translate(-253.962 -291.769)"/>
      <path id="Path_44851" data-name="Path 44851" class="cls-9" d="M258.059,292.12l-.358.123,1.207.7-.286.164-1.488-.86.281-.165.458-.068Z" transform="translate(-254.295 -291.577)"/>
      <path id="Path_44852" data-name="Path 44852" class="cls-9" d="M257.564,292.485c.029.018.027.039,0,.055l-.175.1a.093.093,0,0,1-.1,0l-.183-.105c-.032-.02-.038-.038,0-.059l.175-.1a.1.1,0,0,1,.1,0Zm.8.463c.029.016.025.038,0,.055l-.175.1a.1.1,0,0,1-.1,0l-.182-.107c-.034-.018-.038-.038,0-.057l.173-.1a.1.1,0,0,1,.1,0Z" transform="translate(-254.338 -291.299)"/>
      <path id="Path_44853" data-name="Path 44853" class="cls-9" d="M257.365,292.506l-.544.313c-.105.063-.177.131-.061.2l.073.043c.107.063.2.046.347-.032l.426-.222.229.132-.39.243c-.116.072-.166.131-.043.2l.064.038c.129.073.211.038.347-.041l.517-.3.209.12a2.258,2.258,0,0,1-.574.4.721.721,0,0,1-.748.011l-.086-.05c-.154-.089-.211-.177-.15-.265a.578.578,0,0,1-.442-.077l-.107-.063c-.216-.125-.209-.288.011-.419a3.026,3.026,0,0,1,.716-.347Z" transform="translate(-254.973 -291.281)"/>
      <path id="Path_44854" data-name="Path 44854" class="cls-9" d="M257.558,293.374c.245.141.218.293-.011.426l-.333.193a.7.7,0,0,1-.724,0l-.764-.44c-.195-.113-.277-.259,0-.419l.334-.193a.739.739,0,0,1,.75,0Zm-.331.138-.673-.388a.286.286,0,0,0-.292,0l-.213.123c-.1.057-.088.111.005.165l.674.39a.265.265,0,0,0,.293,0l.2-.114C257.289,293.646,257.35,293.583,257.227,293.511Z" transform="translate(-255.547 -290.927)"/>
    </g>
  </g>
</svg>
