<svg xmlns="http://www.w3.org/2000/svg" width="639.618" height="447.105" viewBox="0 0 639.618 447.105">
  <defs>
    <style>
      .cls-1 {
        opacity: 0.3;
      }

      .cls-2, .cls-8 {
        opacity: 0.5;
      }

      .cls-3 {
        fill: none;
        stroke: #fff;
        stroke-miterlimit: 10;
        stroke-width: 0.25px;
      }

      .cls-4, .cls-6, .cls-7, .cls-8 {
        fill: #fff;
      }

      .cls-5 {
        opacity: 0.53;
      }

      .cls-6 {
        opacity: 0.25;
      }

      .cls-7 {
        opacity: 0.6;
      }
    </style>
  </defs>
  <g id="Group_24016" data-name="Group 24016" class="cls-1" transform="translate(-332.29 244.95) rotate(-17)">
    <g id="Group_23944" data-name="Group 23944" transform="translate(289.52 49.721)">
      <g id="Group_23942" data-name="Group 23942" class="cls-2" transform="translate(0 0)">
        <g id="Group_23933" data-name="Group 23933">
          <g id="Group_23906" data-name="Group 23906" transform="translate(0 127.784)">
            <path id="Path_43089" data-name="Path 43089" class="cls-3" d="M365.2,118.676H316.02l-24.592,42.595,24.592,42.595H365.2L389.8,161.271Z" transform="translate(-288.464 -115.724)"/>
            <circle id="Ellipse_573" data-name="Ellipse 573" class="cls-4" cx="2.951" cy="2.951" r="2.951" transform="translate(24.605)"/>
            <circle id="Ellipse_574" data-name="Ellipse 574" class="cls-4" cx="2.951" cy="2.951" r="2.951" transform="translate(73.814)"/>
            <circle id="Ellipse_575" data-name="Ellipse 575" class="cls-4" cx="2.951" cy="2.951" r="2.951" transform="translate(24.605 85.189)"/>
            <circle id="Ellipse_576" data-name="Ellipse 576" class="cls-4" cx="2.951" cy="2.951" r="2.951" transform="translate(73.814 85.189)"/>
            <circle id="Ellipse_577" data-name="Ellipse 577" class="cls-4" cx="2.951" cy="2.951" r="2.951" transform="translate(0 42.595)"/>
            <circle id="Ellipse_578" data-name="Ellipse 578" class="cls-4" cx="2.951" cy="2.951" r="2.951" transform="translate(98.381 42.595)"/>
          </g>
          <g id="Group_23909" data-name="Group 23909" transform="translate(73.814 85.189)">
            <g id="Group_23907" data-name="Group 23907">
              <path id="Path_43090" data-name="Path 43090" class="cls-3" d="M412.7,91.265H363.52L338.928,133.86l24.592,42.595H412.7L437.3,133.86Z" transform="translate(-335.964 -88.314)"/>
              <circle id="Ellipse_579" data-name="Ellipse 579" class="cls-4" cx="2.951" cy="2.951" r="2.951" transform="translate(24.605)"/>
              <circle id="Ellipse_580" data-name="Ellipse 580" class="cls-4" cx="2.951" cy="2.951" r="2.951" transform="translate(73.814)"/>
              <circle id="Ellipse_581" data-name="Ellipse 581" class="cls-4" cx="2.951" cy="2.951" r="2.951" transform="translate(24.605 85.189)"/>
              <circle id="Ellipse_582" data-name="Ellipse 582" class="cls-4" cx="2.951" cy="2.951" r="2.951" transform="translate(73.814 85.189)"/>
              <circle id="Ellipse_583" data-name="Ellipse 583" class="cls-4" cx="2.951" cy="2.951" r="2.951" transform="translate(0 42.595)"/>
              <circle id="Ellipse_584" data-name="Ellipse 584" class="cls-4" cx="2.951" cy="2.951" r="2.951" transform="translate(98.381 42.595)"/>
            </g>
            <g id="Group_23908" data-name="Group 23908" transform="translate(0 85.189)">
              <path id="Path_43091" data-name="Path 43091" class="cls-3" d="M412.7,146.086H363.52l-24.592,42.595,24.592,42.595H412.7L437.3,188.681Z" transform="translate(-335.964 -143.135)"/>
              <circle id="Ellipse_585" data-name="Ellipse 585" class="cls-4" cx="2.951" cy="2.951" r="2.951" transform="translate(24.605)"/>
              <circle id="Ellipse_586" data-name="Ellipse 586" class="cls-4" cx="2.951" cy="2.951" r="2.951" transform="translate(73.814)"/>
              <circle id="Ellipse_587" data-name="Ellipse 587" class="cls-4" cx="2.951" cy="2.951" r="2.951" transform="translate(24.605 85.189)"/>
              <circle id="Ellipse_588" data-name="Ellipse 588" class="cls-4" cx="2.951" cy="2.951" r="2.951" transform="translate(73.814 85.189)"/>
              <circle id="Ellipse_589" data-name="Ellipse 589" class="cls-4" cx="2.951" cy="2.951" r="2.951" transform="translate(0 42.595)"/>
              <circle id="Ellipse_590" data-name="Ellipse 590" class="cls-4" cx="2.951" cy="2.951" r="2.951" transform="translate(98.381 42.595)"/>
            </g>
          </g>
          <g id="Group_23912" data-name="Group 23912" transform="translate(147.59 42.595)">
            <g id="Group_23910" data-name="Group 23910">
              <path id="Path_43092" data-name="Path 43092" class="cls-3" d="M460.181,63.855H411L386.4,106.45,411,149.044h49.184l24.592-42.595Z" transform="translate(-383.441 -60.904)"/>
              <circle id="Ellipse_591" data-name="Ellipse 591" class="cls-4" cx="2.951" cy="2.951" r="2.951" transform="translate(24.605)"/>
              <circle id="Ellipse_592" data-name="Ellipse 592" class="cls-4" cx="2.951" cy="2.951" r="2.951" transform="translate(73.814)"/>
              <circle id="Ellipse_593" data-name="Ellipse 593" class="cls-4" cx="2.951" cy="2.951" r="2.951" transform="translate(24.605 85.189)"/>
              <circle id="Ellipse_594" data-name="Ellipse 594" class="cls-4" cx="2.951" cy="2.951" r="2.951" transform="translate(73.814 85.189)"/>
              <circle id="Ellipse_595" data-name="Ellipse 595" class="cls-4" cx="2.951" cy="2.951" r="2.951" transform="translate(0 42.595)"/>
              <circle id="Ellipse_596" data-name="Ellipse 596" class="cls-4" cx="2.951" cy="2.951" r="2.951" transform="translate(98.381 42.595)"/>
            </g>
            <g id="Group_23911" data-name="Group 23911" transform="translate(0 85.189)">
              <path id="Path_43093" data-name="Path 43093" class="cls-3" d="M460.181,118.676H411L386.4,161.271,411,203.865h49.184l24.592-42.595Z" transform="translate(-383.441 -115.724)"/>
              <circle id="Ellipse_597" data-name="Ellipse 597" class="cls-4" cx="2.951" cy="2.951" r="2.951" transform="translate(24.605)"/>
              <circle id="Ellipse_598" data-name="Ellipse 598" class="cls-4" cx="2.951" cy="2.951" r="2.951" transform="translate(73.814)"/>
              <circle id="Ellipse_599" data-name="Ellipse 599" class="cls-4" cx="2.951" cy="2.951" r="2.951" transform="translate(24.605 85.189)"/>
              <circle id="Ellipse_600" data-name="Ellipse 600" class="cls-4" cx="2.951" cy="2.951" r="2.951" transform="translate(73.814 85.189)"/>
              <circle id="Ellipse_601" data-name="Ellipse 601" class="cls-4" cx="2.951" cy="2.951" r="2.951" transform="translate(0 42.595)"/>
              <circle id="Ellipse_602" data-name="Ellipse 602" class="cls-4" cx="2.951" cy="2.951" r="2.951" transform="translate(98.381 42.595)"/>
            </g>
          </g>
          <g id="Group_23917" data-name="Group 23917" transform="translate(221.379 85.189)">
            <g id="Group_23914" data-name="Group 23914">
              <g id="Group_23913" data-name="Group 23913">
                <path id="Path_43094" data-name="Path 43094" class="cls-3" d="M507.665,91.265H458.481L433.889,133.86l24.592,42.595h49.184l24.592-42.595Z" transform="translate(-430.925 -88.314)"/>
                <circle id="Ellipse_603" data-name="Ellipse 603" class="cls-4" cx="2.951" cy="2.951" r="2.951" transform="translate(24.605)"/>
                <circle id="Ellipse_604" data-name="Ellipse 604" class="cls-4" cx="2.951" cy="2.951" r="2.951" transform="translate(73.814)"/>
                <circle id="Ellipse_605" data-name="Ellipse 605" class="cls-4" cx="2.951" cy="2.951" r="2.951" transform="translate(24.605 85.189)"/>
                <circle id="Ellipse_606" data-name="Ellipse 606" class="cls-4" cx="2.951" cy="2.951" r="2.951" transform="translate(73.814 85.189)"/>
                <circle id="Ellipse_607" data-name="Ellipse 607" class="cls-4" cx="2.951" cy="2.951" r="2.951" transform="translate(0 42.595)"/>
                <circle id="Ellipse_608" data-name="Ellipse 608" class="cls-4" cx="2.951" cy="2.951" r="2.951" transform="translate(98.381 42.595)"/>
              </g>
            </g>
            <g id="Group_23916" data-name="Group 23916" transform="translate(0.006 85.189)">
              <g id="Group_23915" data-name="Group 23915">
                <path id="Path_43095" data-name="Path 43095" class="cls-3" d="M507.669,146.086H458.485l-24.592,42.595,24.592,42.595h49.184l24.592-42.595Z" transform="translate(-430.929 -143.135)"/>
                <circle id="Ellipse_609" data-name="Ellipse 609" class="cls-4" cx="2.951" cy="2.951" r="2.951" transform="translate(24.605)"/>
                <circle id="Ellipse_610" data-name="Ellipse 610" class="cls-4" cx="2.951" cy="2.951" r="2.951" transform="translate(73.814)"/>
                <circle id="Ellipse_611" data-name="Ellipse 611" class="cls-4" cx="2.951" cy="2.951" r="2.951" transform="translate(24.605 85.189)"/>
                <circle id="Ellipse_612" data-name="Ellipse 612" class="cls-4" cx="2.951" cy="2.951" r="2.951" transform="translate(73.814 85.189)"/>
                <circle id="Ellipse_613" data-name="Ellipse 613" class="cls-4" cx="2.951" cy="2.951" r="2.951" transform="translate(0 42.595)"/>
                <circle id="Ellipse_614" data-name="Ellipse 614" class="cls-4" cx="2.951" cy="2.951" r="2.951" transform="translate(98.381 42.595)"/>
              </g>
            </g>
          </g>
          <g id="Group_23924" data-name="Group 23924" transform="translate(295.193 42.595)">
            <g id="Group_23922" data-name="Group 23922">
              <g id="Group_23919" data-name="Group 23919">
                <g id="Group_23918" data-name="Group 23918">
                  <path id="Path_43096" data-name="Path 43096" class="cls-3" d="M555.166,63.855H505.982L481.39,106.45l24.592,42.595h49.184l24.592-42.595Z" transform="translate(-478.426 -60.904)"/>
                  <circle id="Ellipse_615" data-name="Ellipse 615" class="cls-4" cx="2.951" cy="2.951" r="2.951" transform="translate(24.605)"/>
                  <circle id="Ellipse_616" data-name="Ellipse 616" class="cls-4" cx="2.951" cy="2.951" r="2.951" transform="translate(73.814)"/>
                  <circle id="Ellipse_617" data-name="Ellipse 617" class="cls-4" cx="2.951" cy="2.951" r="2.951" transform="translate(24.605 85.189)"/>
                  <circle id="Ellipse_618" data-name="Ellipse 618" class="cls-4" cx="2.951" cy="2.951" r="2.951" transform="translate(73.814 85.189)"/>
                  <circle id="Ellipse_619" data-name="Ellipse 619" class="cls-4" cx="2.951" cy="2.951" r="2.951" transform="translate(0 42.595)"/>
                  <circle id="Ellipse_620" data-name="Ellipse 620" class="cls-4" cx="2.951" cy="2.951" r="2.951" transform="translate(98.381 42.595)"/>
                </g>
              </g>
              <g id="Group_23921" data-name="Group 23921" transform="translate(0.006 85.189)">
                <g id="Group_23920" data-name="Group 23920">
                  <path id="Path_43097" data-name="Path 43097" class="cls-3" d="M555.17,118.676H505.986l-24.592,42.595,24.592,42.595H555.17l24.592-42.595Z" transform="translate(-478.43 -115.724)"/>
                  <circle id="Ellipse_621" data-name="Ellipse 621" class="cls-4" cx="2.951" cy="2.951" r="2.951" transform="translate(24.605)"/>
                  <circle id="Ellipse_622" data-name="Ellipse 622" class="cls-4" cx="2.951" cy="2.951" r="2.951" transform="translate(73.814)"/>
                  <circle id="Ellipse_623" data-name="Ellipse 623" class="cls-4" cx="2.951" cy="2.951" r="2.951" transform="translate(24.605 85.189)"/>
                  <circle id="Ellipse_624" data-name="Ellipse 624" class="cls-4" cx="2.951" cy="2.951" r="2.951" transform="translate(73.814 85.189)"/>
                  <circle id="Ellipse_625" data-name="Ellipse 625" class="cls-4" cx="2.951" cy="2.951" r="2.951" transform="translate(0 42.595)"/>
                  <circle id="Ellipse_626" data-name="Ellipse 626" class="cls-4" cx="2.951" cy="2.951" r="2.951" transform="translate(98.381 42.595)"/>
                </g>
              </g>
            </g>
            <g id="Group_23923" data-name="Group 23923" transform="translate(0.013 170.379)">
              <path id="Path_43098" data-name="Path 43098" class="cls-3" d="M555.174,173.5H505.99L481.4,216.092l24.592,42.595h49.184l24.592-42.595Z" transform="translate(-478.434 -170.545)"/>
              <circle id="Ellipse_627" data-name="Ellipse 627" class="cls-4" cx="2.951" cy="2.951" r="2.951" transform="translate(24.605)"/>
              <circle id="Ellipse_628" data-name="Ellipse 628" class="cls-4" cx="2.951" cy="2.951" r="2.951" transform="translate(73.814)"/>
              <circle id="Ellipse_629" data-name="Ellipse 629" class="cls-4" cx="2.951" cy="2.951" r="2.951" transform="translate(24.605 85.189)"/>
              <circle id="Ellipse_630" data-name="Ellipse 630" class="cls-4" cx="2.951" cy="2.951" r="2.951" transform="translate(73.814 85.189)"/>
              <circle id="Ellipse_631" data-name="Ellipse 631" class="cls-4" cx="2.951" cy="2.951" r="2.951" transform="translate(0 42.595)"/>
              <circle id="Ellipse_632" data-name="Ellipse 632" class="cls-4" cx="2.951" cy="2.951" r="2.951" transform="translate(98.381 42.595)"/>
            </g>
          </g>
          <g id="Group_23932" data-name="Group 23932" transform="translate(368.981)">
            <g id="Group_23929" data-name="Group 23929">
              <g id="Group_23926" data-name="Group 23926">
                <g id="Group_23925" data-name="Group 23925">
                  <path id="Path_43099" data-name="Path 43099" class="cls-3" d="M602.65,36.444H553.466L528.874,79.039l24.592,42.595H602.65l24.592-42.595Z" transform="translate(-525.91 -33.493)"/>
                  <circle id="Ellipse_633" data-name="Ellipse 633" class="cls-4" cx="2.951" cy="2.951" r="2.951" transform="translate(24.605)"/>
                  <circle id="Ellipse_634" data-name="Ellipse 634" class="cls-4" cx="2.951" cy="2.951" r="2.951" transform="translate(73.814)"/>
                  <circle id="Ellipse_635" data-name="Ellipse 635" class="cls-4" cx="2.951" cy="2.951" r="2.951" transform="translate(24.605 85.189)"/>
                  <circle id="Ellipse_636" data-name="Ellipse 636" class="cls-4" cx="2.951" cy="2.951" r="2.951" transform="translate(73.814 85.189)"/>
                  <circle id="Ellipse_637" data-name="Ellipse 637" class="cls-4" cx="2.951" cy="2.951" r="2.951" transform="translate(0 42.595)"/>
                  <circle id="Ellipse_638" data-name="Ellipse 638" class="cls-4" cx="2.951" cy="2.951" r="2.951" transform="translate(98.381 42.595)"/>
                </g>
              </g>
              <g id="Group_23928" data-name="Group 23928" transform="translate(0.006 85.189)">
                <g id="Group_23927" data-name="Group 23927">
                  <path id="Path_43100" data-name="Path 43100" class="cls-3" d="M602.654,91.265H553.47L528.878,133.86l24.592,42.595h49.184l24.592-42.595Z" transform="translate(-525.914 -88.314)"/>
                  <circle id="Ellipse_639" data-name="Ellipse 639" class="cls-4" cx="2.951" cy="2.951" r="2.951" transform="translate(24.605)"/>
                  <circle id="Ellipse_640" data-name="Ellipse 640" class="cls-4" cx="2.951" cy="2.951" r="2.951" transform="translate(73.814)"/>
                  <circle id="Ellipse_641" data-name="Ellipse 641" class="cls-4" cx="2.951" cy="2.951" r="2.951" transform="translate(24.605 85.189)"/>
                  <circle id="Ellipse_642" data-name="Ellipse 642" class="cls-4" cx="2.951" cy="2.951" r="2.951" transform="translate(73.814 85.189)"/>
                  <circle id="Ellipse_643" data-name="Ellipse 643" class="cls-4" cx="2.951" cy="2.951" r="2.951" transform="translate(0 42.595)"/>
                  <circle id="Ellipse_644" data-name="Ellipse 644" class="cls-4" cx="2.951" cy="2.951" r="2.951" transform="translate(98.381 42.595)"/>
                </g>
              </g>
            </g>
            <g id="Group_23930" data-name="Group 23930" transform="translate(0.013 170.379)">
              <path id="Path_43101" data-name="Path 43101" class="cls-3" d="M602.658,146.086H553.474l-24.592,42.595,24.592,42.595h49.184l24.592-42.595Z" transform="translate(-525.918 -143.135)"/>
              <circle id="Ellipse_645" data-name="Ellipse 645" class="cls-4" cx="2.951" cy="2.951" r="2.951" transform="translate(24.605)"/>
              <circle id="Ellipse_646" data-name="Ellipse 646" class="cls-4" cx="2.951" cy="2.951" r="2.951" transform="translate(73.814)"/>
              <circle id="Ellipse_647" data-name="Ellipse 647" class="cls-4" cx="2.951" cy="2.951" r="2.951" transform="translate(24.605 85.189)"/>
              <circle id="Ellipse_648" data-name="Ellipse 648" class="cls-4" cx="2.951" cy="2.951" r="2.951" transform="translate(73.814 85.189)"/>
              <circle id="Ellipse_649" data-name="Ellipse 649" class="cls-4" cx="2.951" cy="2.951" r="2.951" transform="translate(0 42.595)"/>
              <circle id="Ellipse_650" data-name="Ellipse 650" class="cls-4" cx="2.951" cy="2.951" r="2.951" transform="translate(98.381 42.595)"/>
            </g>
            <g id="Group_23931" data-name="Group 23931" transform="translate(0.013 255.568)">
              <path id="Path_43102" data-name="Path 43102" class="cls-3" d="M602.658,200.907H553.474L528.882,243.5,553.474,286.1h49.184L627.25,243.5Z" transform="translate(-525.918 -197.956)"/>
              <circle id="Ellipse_651" data-name="Ellipse 651" class="cls-4" cx="2.951" cy="2.951" r="2.951" transform="translate(24.605)"/>
              <circle id="Ellipse_652" data-name="Ellipse 652" class="cls-4" cx="2.951" cy="2.951" r="2.951" transform="translate(73.814)"/>
              <circle id="Ellipse_653" data-name="Ellipse 653" class="cls-4" cx="2.951" cy="2.951" r="2.951" transform="translate(24.605 85.189)"/>
              <circle id="Ellipse_654" data-name="Ellipse 654" class="cls-4" cx="2.951" cy="2.951" r="2.951" transform="translate(73.814 85.189)"/>
              <circle id="Ellipse_655" data-name="Ellipse 655" class="cls-4" cx="2.951" cy="2.951" r="2.951" transform="translate(0 42.595)"/>
              <circle id="Ellipse_656" data-name="Ellipse 656" class="cls-4" cx="2.951" cy="2.951" r="2.951" transform="translate(98.381 42.595)"/>
            </g>
          </g>
        </g>
        <g id="Group_23941" data-name="Group 23941" transform="translate(442.795 42.595)">
          <g id="Group_23938" data-name="Group 23938">
            <g id="Group_23935" data-name="Group 23935">
              <g id="Group_23934" data-name="Group 23934">
                <path id="Path_43103" data-name="Path 43103" class="cls-3" d="M650.151,63.855H600.967L576.375,106.45l24.592,42.595h49.184l24.592-42.595Z" transform="translate(-573.411 -60.904)"/>
                <circle id="Ellipse_657" data-name="Ellipse 657" class="cls-4" cx="2.951" cy="2.951" r="2.951" transform="translate(24.605)"/>
                <circle id="Ellipse_658" data-name="Ellipse 658" class="cls-4" cx="2.951" cy="2.951" r="2.951" transform="translate(73.814)"/>
                <circle id="Ellipse_659" data-name="Ellipse 659" class="cls-4" cx="2.951" cy="2.951" r="2.951" transform="translate(24.605 85.189)"/>
                <circle id="Ellipse_660" data-name="Ellipse 660" class="cls-4" cx="2.951" cy="2.951" r="2.951" transform="translate(73.814 85.189)"/>
                <circle id="Ellipse_661" data-name="Ellipse 661" class="cls-4" cx="2.951" cy="2.951" r="2.951" transform="translate(0 42.595)"/>
                <circle id="Ellipse_662" data-name="Ellipse 662" class="cls-4" cx="2.951" cy="2.951" r="2.951" transform="translate(98.381 42.595)"/>
              </g>
            </g>
            <g id="Group_23937" data-name="Group 23937" transform="translate(0.006 85.189)">
              <g id="Group_23936" data-name="Group 23936">
                <path id="Path_43104" data-name="Path 43104" class="cls-3" d="M650.155,118.676H600.971l-24.592,42.595,24.592,42.595h49.184l24.592-42.595Z" transform="translate(-573.415 -115.724)"/>
                <circle id="Ellipse_663" data-name="Ellipse 663" class="cls-4" cx="2.951" cy="2.951" r="2.951" transform="translate(24.605)"/>
                <circle id="Ellipse_664" data-name="Ellipse 664" class="cls-4" cx="2.951" cy="2.951" r="2.951" transform="translate(73.814)"/>
                <circle id="Ellipse_665" data-name="Ellipse 665" class="cls-4" cx="2.951" cy="2.951" r="2.951" transform="translate(24.605 85.189)"/>
                <circle id="Ellipse_666" data-name="Ellipse 666" class="cls-4" cx="2.951" cy="2.951" r="2.951" transform="translate(73.814 85.189)"/>
                <circle id="Ellipse_667" data-name="Ellipse 667" class="cls-4" cx="2.951" cy="2.951" r="2.951" transform="translate(0 42.595)"/>
                <circle id="Ellipse_668" data-name="Ellipse 668" class="cls-4" cx="2.951" cy="2.951" r="2.951" transform="translate(98.381 42.595)"/>
              </g>
            </g>
          </g>
          <g id="Group_23939" data-name="Group 23939" transform="translate(0.013 170.379)">
            <path id="Path_43105" data-name="Path 43105" class="cls-3" d="M650.159,173.5H600.975l-24.592,42.595,24.592,42.595h49.184l24.592-42.595Z" transform="translate(-573.419 -170.545)"/>
            <circle id="Ellipse_669" data-name="Ellipse 669" class="cls-4" cx="2.951" cy="2.951" r="2.951" transform="translate(24.605)"/>
            <circle id="Ellipse_670" data-name="Ellipse 670" class="cls-4" cx="2.951" cy="2.951" r="2.951" transform="translate(73.814)"/>
            <circle id="Ellipse_671" data-name="Ellipse 671" class="cls-4" cx="2.951" cy="2.951" r="2.951" transform="translate(24.605 85.189)"/>
            <circle id="Ellipse_672" data-name="Ellipse 672" class="cls-4" cx="2.951" cy="2.951" r="2.951" transform="translate(73.814 85.189)"/>
            <circle id="Ellipse_673" data-name="Ellipse 673" class="cls-4" cx="2.951" cy="2.951" r="2.951" transform="translate(0 42.595)"/>
            <circle id="Ellipse_674" data-name="Ellipse 674" class="cls-4" cx="2.951" cy="2.951" r="2.951" transform="translate(98.381 42.595)"/>
          </g>
          <g id="Group_23940" data-name="Group 23940" transform="translate(0.013 255.568)">
            <path id="Path_43106" data-name="Path 43106" class="cls-3" d="M650.159,228.318H600.975l-24.592,42.595,24.592,42.595h49.184l24.592-42.595Z" transform="translate(-573.419 -225.366)"/>
            <circle id="Ellipse_675" data-name="Ellipse 675" class="cls-4" cx="2.951" cy="2.951" r="2.951" transform="translate(24.605)"/>
            <circle id="Ellipse_676" data-name="Ellipse 676" class="cls-4" cx="2.951" cy="2.951" r="2.951" transform="translate(73.814)"/>
            <circle id="Ellipse_677" data-name="Ellipse 677" class="cls-4" cx="2.951" cy="2.951" r="2.951" transform="translate(24.605 85.189)"/>
            <circle id="Ellipse_678" data-name="Ellipse 678" class="cls-4" cx="2.951" cy="2.951" r="2.951" transform="translate(73.814 85.189)"/>
            <circle id="Ellipse_679" data-name="Ellipse 679" class="cls-4" cx="2.951" cy="2.951" r="2.951" transform="translate(0 42.595)"/>
            <circle id="Ellipse_680" data-name="Ellipse 680" class="cls-4" cx="2.951" cy="2.951" r="2.951" transform="translate(98.381 42.595)"/>
          </g>
        </g>
      </g>
      <g id="Group_23943" data-name="Group 23943" class="cls-5" transform="translate(15.843 2.95)">
        <path id="Path_43107" data-name="Path 43107" class="cls-6" d="M651.012,250.1h-44.23l-22.112-38.3,22.112-38.3h44.23l22.112,38.3Z" transform="translate(-141.863 39.478)"/>
        <path id="Path_43108" data-name="Path 43108" class="cls-4" d="M407.8,179.675l-13.1-22.7,22.115-38.3h44.227l22.112,38.3-22.112,38.3H416.807Z" transform="translate(-247.103 9.109)"/>
        <path id="Path_43109" data-name="Path 43109" class="cls-6" d="M464.289,167.869l-22.112-38.3,22.112-38.3h44.23l22.112,38.3-22.112,38.3Z" transform="translate(-220.798 -6.075)"/>
        <path id="Path_43110" data-name="Path 43110" class="cls-7" d="M511.79,195.279l-22.112-38.3,22.112-38.3h44.228l22.114,38.3-22.114,38.3Z" transform="translate(-194.485 9.109)"/>
        <path id="Path_43111" data-name="Path 43111" class="cls-6" d="M603.507,91.264l22.112,38.3-22.112,38.3H559.279l-22.114-38.3,22.114-38.3Z" transform="translate(-168.179 -6.075)"/>
        <path id="Path_43112" data-name="Path 43112" class="cls-8" d="M559.283,222.689l-22.114-38.3,22.114-38.3h44.228l22.112,38.3-22.112,38.3Z" transform="translate(-168.176 24.294)"/>
        <path id="Path_43113" data-name="Path 43113" class="cls-4" d="M651.008,195.279h-44.23l-22.112-38.3,22.112-38.3h44.23l22.112,38.3Z" transform="translate(-141.865 9.109)"/>
        <path id="Path_43114" data-name="Path 43114" class="cls-8" d="M651,140.456h-44.23l-22.112-38.3,22.112-38.3H651l22.112,38.3Z" transform="translate(-141.867 -21.259)"/>
        <path id="Path_43115" data-name="Path 43115" class="cls-4" d="M559.275,36.443H603.5l22.112,38.3-22.112,38.3H559.275l-22.114-38.3Z" transform="translate(-168.181 -36.443)"/>
        <path id="Path_43116" data-name="Path 43116" class="cls-8" d="M511.79,63.854h44.228l22.114,38.3-22.114,38.3H511.79l-22.112-38.3Z" transform="translate(-194.485 -21.259)"/>
        <path id="Path_43117" data-name="Path 43117" class="cls-7" d="M416.806,63.854h44.228l22.112,38.3-22.112,38.3H416.807l-11.058-19.151-11.057-19.151Z" transform="translate(-247.103 -21.259)"/>
        <path id="Path_43118" data-name="Path 43118" class="cls-8" d="M369.328,91.264h44.226l11.058,19.151,11.057,19.151-22.114,38.3H369.328l-22.112-38.3Z" transform="translate(-273.402 -6.075)"/>
        <path id="Path_43119" data-name="Path 43119" class="cls-6" d="M299.716,156.978l22.112-38.3h44.23l22.112,38.3-22.112,38.3h-44.23Z" transform="translate(-299.716 9.109)"/>
        <path id="Path_43120" data-name="Path 43120" class="cls-7" d="M413.556,222.689H369.328l-22.112-38.3,22.112-38.3h44.226l13.795,23.89,8.32,14.411Z" transform="translate(-273.402 24.294)"/>
        <path id="Path_43121" data-name="Path 43121" class="cls-6" d="M442.181,184.388l22.112-38.3h44.23l22.112,38.3-22.112,38.3h-44.23Z" transform="translate(-220.796 24.294)"/>
        <path id="Path_43122" data-name="Path 43122" class="cls-4" d="M489.686,211.8,511.8,173.5h44.228l22.114,38.3-22.114,38.3H511.8Z" transform="translate(-194.48 39.478)"/>
        <path id="Path_43123" data-name="Path 43123" class="cls-6" d="M537.17,239.208l22.114-38.3h44.228l22.112,38.3-22.112,38.3H559.283Z" transform="translate(-168.176 54.662)"/>
        <path id="Path_43124" data-name="Path 43124" class="cls-8" d="M651.012,304.92h-44.23l-22.112-38.3,22.112-38.3h44.23l22.112,38.3Z" transform="translate(-141.863 69.846)"/>
      </g>
    </g>
    <g id="Group_23982" data-name="Group 23982" transform="translate(338.679 7.151)">
      <g id="Group_23972" data-name="Group 23972" transform="translate(0 42.595)">
        <g id="Group_23945" data-name="Group 23945" transform="translate(0 127.784)">
          <path id="Path_43125" data-name="Path 43125" class="cls-3" d="M396.839,118.692H347.654l-24.592,42.595,24.592,42.595h49.184l24.592-42.595Z" transform="translate(-320.098 -115.74)"/>
          <circle id="Ellipse_681" data-name="Ellipse 681" class="cls-4" cx="2.951" cy="2.951" r="2.951" transform="translate(24.605)"/>
          <circle id="Ellipse_682" data-name="Ellipse 682" class="cls-4" cx="2.951" cy="2.951" r="2.951" transform="translate(73.814)"/>
          <circle id="Ellipse_683" data-name="Ellipse 683" class="cls-4" cx="2.951" cy="2.951" r="2.951" transform="translate(24.605 85.189)"/>
          <circle id="Ellipse_684" data-name="Ellipse 684" class="cls-4" cx="2.951" cy="2.951" r="2.951" transform="translate(73.814 85.189)"/>
          <circle id="Ellipse_685" data-name="Ellipse 685" class="cls-4" cx="2.951" cy="2.951" r="2.951" transform="translate(0 42.595)"/>
          <circle id="Ellipse_686" data-name="Ellipse 686" class="cls-4" cx="2.951" cy="2.951" r="2.951" transform="translate(98.381 42.595)"/>
        </g>
        <g id="Group_23948" data-name="Group 23948" transform="translate(73.814 85.189)">
          <g id="Group_23946" data-name="Group 23946">
            <path id="Path_43126" data-name="Path 43126" class="cls-3" d="M444.339,91.281H395.155l-24.592,42.595,24.592,42.595h49.184l24.592-42.595Z" transform="translate(-367.599 -88.33)"/>
            <circle id="Ellipse_687" data-name="Ellipse 687" class="cls-4" cx="2.951" cy="2.951" r="2.951" transform="translate(24.605)"/>
            <circle id="Ellipse_688" data-name="Ellipse 688" class="cls-4" cx="2.951" cy="2.951" r="2.951" transform="translate(73.814)"/>
            <circle id="Ellipse_689" data-name="Ellipse 689" class="cls-4" cx="2.951" cy="2.951" r="2.951" transform="translate(24.605 85.189)"/>
            <circle id="Ellipse_690" data-name="Ellipse 690" class="cls-4" cx="2.951" cy="2.951" r="2.951" transform="translate(73.814 85.189)"/>
            <circle id="Ellipse_691" data-name="Ellipse 691" class="cls-4" cx="2.951" cy="2.951" r="2.951" transform="translate(0 42.595)"/>
            <circle id="Ellipse_692" data-name="Ellipse 692" class="cls-4" cx="2.951" cy="2.951" r="2.951" transform="translate(98.381 42.595)"/>
          </g>
          <g id="Group_23947" data-name="Group 23947" transform="translate(0 85.189)">
            <path id="Path_43127" data-name="Path 43127" class="cls-3" d="M444.339,146.1H395.155L370.563,188.7l24.592,42.595h49.184L468.931,188.7Z" transform="translate(-367.599 -143.151)"/>
            <circle id="Ellipse_693" data-name="Ellipse 693" class="cls-4" cx="2.951" cy="2.951" r="2.951" transform="translate(24.605)"/>
            <circle id="Ellipse_694" data-name="Ellipse 694" class="cls-4" cx="2.951" cy="2.951" r="2.951" transform="translate(73.814)"/>
            <circle id="Ellipse_695" data-name="Ellipse 695" class="cls-4" cx="2.951" cy="2.951" r="2.951" transform="translate(24.605 85.189)"/>
            <circle id="Ellipse_696" data-name="Ellipse 696" class="cls-4" cx="2.951" cy="2.951" r="2.951" transform="translate(73.814 85.189)"/>
            <circle id="Ellipse_697" data-name="Ellipse 697" class="cls-4" cx="2.951" cy="2.951" r="2.951" transform="translate(0 42.595)"/>
            <circle id="Ellipse_698" data-name="Ellipse 698" class="cls-4" cx="2.951" cy="2.951" r="2.951" transform="translate(98.381 42.595)"/>
          </g>
        </g>
        <g id="Group_23951" data-name="Group 23951" transform="translate(147.59 42.595)">
          <g id="Group_23949" data-name="Group 23949">
            <path id="Path_43128" data-name="Path 43128" class="cls-3" d="M491.816,63.871H442.631l-24.592,42.595,24.592,42.595h49.184l24.592-42.595Z" transform="translate(-415.075 -60.919)"/>
            <circle id="Ellipse_699" data-name="Ellipse 699" class="cls-4" cx="2.951" cy="2.951" r="2.951" transform="translate(24.605)"/>
            <circle id="Ellipse_700" data-name="Ellipse 700" class="cls-4" cx="2.951" cy="2.951" r="2.951" transform="translate(73.814)"/>
            <circle id="Ellipse_701" data-name="Ellipse 701" class="cls-4" cx="2.951" cy="2.951" r="2.951" transform="translate(24.605 85.189)"/>
            <circle id="Ellipse_702" data-name="Ellipse 702" class="cls-4" cx="2.951" cy="2.951" r="2.951" transform="translate(73.814 85.189)"/>
            <circle id="Ellipse_703" data-name="Ellipse 703" class="cls-4" cx="2.951" cy="2.951" r="2.951" transform="translate(0 42.595)"/>
            <circle id="Ellipse_704" data-name="Ellipse 704" class="cls-4" cx="2.951" cy="2.951" r="2.951" transform="translate(98.381 42.595)"/>
          </g>
          <g id="Group_23950" data-name="Group 23950" transform="translate(0 85.189)">
            <path id="Path_43129" data-name="Path 43129" class="cls-3" d="M491.816,118.692H442.631l-24.592,42.595,24.592,42.595h49.184l24.592-42.595Z" transform="translate(-415.075 -115.74)"/>
            <circle id="Ellipse_705" data-name="Ellipse 705" class="cls-4" cx="2.951" cy="2.951" r="2.951" transform="translate(24.605)"/>
            <circle id="Ellipse_706" data-name="Ellipse 706" class="cls-4" cx="2.951" cy="2.951" r="2.951" transform="translate(73.814)"/>
            <circle id="Ellipse_707" data-name="Ellipse 707" class="cls-4" cx="2.951" cy="2.951" r="2.951" transform="translate(24.605 85.189)"/>
            <circle id="Ellipse_708" data-name="Ellipse 708" class="cls-4" cx="2.951" cy="2.951" r="2.951" transform="translate(73.814 85.189)"/>
            <circle id="Ellipse_709" data-name="Ellipse 709" class="cls-4" cx="2.951" cy="2.951" r="2.951" transform="translate(0 42.595)"/>
            <circle id="Ellipse_710" data-name="Ellipse 710" class="cls-4" cx="2.951" cy="2.951" r="2.951" transform="translate(98.381 42.595)"/>
          </g>
        </g>
        <g id="Group_23956" data-name="Group 23956" transform="translate(221.379 85.189)">
          <g id="Group_23953" data-name="Group 23953">
            <g id="Group_23952" data-name="Group 23952">
              <path id="Path_43130" data-name="Path 43130" class="cls-3" d="M539.3,91.281H490.116l-24.592,42.595,24.592,42.595H539.3l24.592-42.595Z" transform="translate(-462.56 -88.33)"/>
              <circle id="Ellipse_711" data-name="Ellipse 711" class="cls-4" cx="2.951" cy="2.951" r="2.951" transform="translate(24.605)"/>
              <circle id="Ellipse_712" data-name="Ellipse 712" class="cls-4" cx="2.951" cy="2.951" r="2.951" transform="translate(73.814)"/>
              <circle id="Ellipse_713" data-name="Ellipse 713" class="cls-4" cx="2.951" cy="2.951" r="2.951" transform="translate(24.605 85.189)"/>
              <circle id="Ellipse_714" data-name="Ellipse 714" class="cls-4" cx="2.951" cy="2.951" r="2.951" transform="translate(73.814 85.189)"/>
              <circle id="Ellipse_715" data-name="Ellipse 715" class="cls-4" cx="2.951" cy="2.951" r="2.951" transform="translate(0 42.595)"/>
              <circle id="Ellipse_716" data-name="Ellipse 716" class="cls-4" cx="2.951" cy="2.951" r="2.951" transform="translate(98.381 42.595)"/>
            </g>
          </g>
          <g id="Group_23955" data-name="Group 23955" transform="translate(0.006 85.189)">
            <g id="Group_23954" data-name="Group 23954">
              <path id="Path_43131" data-name="Path 43131" class="cls-3" d="M539.3,146.1H490.12L465.528,188.7l24.592,42.595H539.3L563.9,188.7Z" transform="translate(-462.564 -143.151)"/>
              <circle id="Ellipse_717" data-name="Ellipse 717" class="cls-4" cx="2.951" cy="2.951" r="2.951" transform="translate(24.605)"/>
              <circle id="Ellipse_718" data-name="Ellipse 718" class="cls-4" cx="2.951" cy="2.951" r="2.951" transform="translate(73.814)"/>
              <circle id="Ellipse_719" data-name="Ellipse 719" class="cls-4" cx="2.951" cy="2.951" r="2.951" transform="translate(24.605 85.189)"/>
              <circle id="Ellipse_720" data-name="Ellipse 720" class="cls-4" cx="2.951" cy="2.951" r="2.951" transform="translate(73.814 85.189)"/>
              <circle id="Ellipse_721" data-name="Ellipse 721" class="cls-4" cx="2.951" cy="2.951" r="2.951" transform="translate(0 42.595)"/>
              <circle id="Ellipse_722" data-name="Ellipse 722" class="cls-4" cx="2.951" cy="2.951" r="2.951" transform="translate(98.381 42.595)"/>
            </g>
          </g>
        </g>
        <g id="Group_23963" data-name="Group 23963" transform="translate(295.193 42.595)">
          <g id="Group_23961" data-name="Group 23961">
            <g id="Group_23958" data-name="Group 23958">
              <g id="Group_23957" data-name="Group 23957">
                <path id="Path_43132" data-name="Path 43132" class="cls-3" d="M586.8,63.871H537.616l-24.592,42.595,24.592,42.595H586.8l24.592-42.595Z" transform="translate(-510.06 -60.919)"/>
                <circle id="Ellipse_723" data-name="Ellipse 723" class="cls-4" cx="2.951" cy="2.951" r="2.951" transform="translate(24.605)"/>
                <circle id="Ellipse_724" data-name="Ellipse 724" class="cls-4" cx="2.951" cy="2.951" r="2.951" transform="translate(73.814)"/>
                <circle id="Ellipse_725" data-name="Ellipse 725" class="cls-4" cx="2.951" cy="2.951" r="2.951" transform="translate(24.605 85.189)"/>
                <circle id="Ellipse_726" data-name="Ellipse 726" class="cls-4" cx="2.951" cy="2.951" r="2.951" transform="translate(73.814 85.189)"/>
                <circle id="Ellipse_727" data-name="Ellipse 727" class="cls-4" cx="2.951" cy="2.951" r="2.951" transform="translate(0 42.595)"/>
                <circle id="Ellipse_728" data-name="Ellipse 728" class="cls-4" cx="2.951" cy="2.951" r="2.951" transform="translate(98.381 42.595)"/>
              </g>
            </g>
            <g id="Group_23960" data-name="Group 23960" transform="translate(0.006 85.189)">
              <g id="Group_23959" data-name="Group 23959">
                <path id="Path_43133" data-name="Path 43133" class="cls-3" d="M586.8,118.692H537.621l-24.592,42.595,24.592,42.595H586.8L611.4,161.286Z" transform="translate(-510.065 -115.74)"/>
                <circle id="Ellipse_729" data-name="Ellipse 729" class="cls-4" cx="2.951" cy="2.951" r="2.951" transform="translate(24.605)"/>
                <circle id="Ellipse_730" data-name="Ellipse 730" class="cls-4" cx="2.951" cy="2.951" r="2.951" transform="translate(73.814)"/>
                <circle id="Ellipse_731" data-name="Ellipse 731" class="cls-4" cx="2.951" cy="2.951" r="2.951" transform="translate(24.605 85.189)"/>
                <circle id="Ellipse_732" data-name="Ellipse 732" class="cls-4" cx="2.951" cy="2.951" r="2.951" transform="translate(73.814 85.189)"/>
                <circle id="Ellipse_733" data-name="Ellipse 733" class="cls-4" cx="2.951" cy="2.951" r="2.951" transform="translate(0 42.595)"/>
                <circle id="Ellipse_734" data-name="Ellipse 734" class="cls-4" cx="2.951" cy="2.951" r="2.951" transform="translate(98.381 42.595)"/>
              </g>
            </g>
          </g>
          <g id="Group_23962" data-name="Group 23962" transform="translate(0.013 170.379)">
            <path id="Path_43134" data-name="Path 43134" class="cls-3" d="M586.809,173.513H537.625l-24.592,42.595L537.625,258.7h49.184L611.4,216.107Z" transform="translate(-510.069 -170.561)"/>
            <circle id="Ellipse_735" data-name="Ellipse 735" class="cls-4" cx="2.951" cy="2.951" r="2.951" transform="translate(24.605)"/>
            <circle id="Ellipse_736" data-name="Ellipse 736" class="cls-4" cx="2.951" cy="2.951" r="2.951" transform="translate(73.814)"/>
            <circle id="Ellipse_737" data-name="Ellipse 737" class="cls-4" cx="2.951" cy="2.951" r="2.951" transform="translate(24.605 85.189)"/>
            <circle id="Ellipse_738" data-name="Ellipse 738" class="cls-4" cx="2.951" cy="2.951" r="2.951" transform="translate(73.814 85.189)"/>
            <circle id="Ellipse_739" data-name="Ellipse 739" class="cls-4" cx="2.951" cy="2.951" r="2.951" transform="translate(0 42.595)"/>
            <circle id="Ellipse_740" data-name="Ellipse 740" class="cls-4" cx="2.951" cy="2.951" r="2.951" transform="translate(98.381 42.595)"/>
          </g>
        </g>
        <g id="Group_23971" data-name="Group 23971" transform="translate(368.981)">
          <g id="Group_23968" data-name="Group 23968">
            <g id="Group_23965" data-name="Group 23965">
              <g id="Group_23964" data-name="Group 23964">
                <path id="Path_43135" data-name="Path 43135" class="cls-3" d="M634.285,36.46H585.1L560.509,79.055,585.1,121.65h49.184l24.592-42.595Z" transform="translate(-557.545 -33.509)"/>
                <circle id="Ellipse_741" data-name="Ellipse 741" class="cls-4" cx="2.951" cy="2.951" r="2.951" transform="translate(24.605)"/>
                <circle id="Ellipse_742" data-name="Ellipse 742" class="cls-4" cx="2.951" cy="2.951" r="2.951" transform="translate(73.814)"/>
                <circle id="Ellipse_743" data-name="Ellipse 743" class="cls-4" cx="2.951" cy="2.951" r="2.951" transform="translate(24.605 85.189)"/>
                <circle id="Ellipse_744" data-name="Ellipse 744" class="cls-4" cx="2.951" cy="2.951" r="2.951" transform="translate(73.814 85.189)"/>
                <circle id="Ellipse_745" data-name="Ellipse 745" class="cls-4" cx="2.951" cy="2.951" r="2.951" transform="translate(0 42.595)"/>
                <circle id="Ellipse_746" data-name="Ellipse 746" class="cls-4" cx="2.951" cy="2.951" r="2.951" transform="translate(98.381 42.595)"/>
              </g>
            </g>
            <g id="Group_23967" data-name="Group 23967" transform="translate(0.006 85.189)">
              <g id="Group_23966" data-name="Group 23966">
                <path id="Path_43136" data-name="Path 43136" class="cls-3" d="M634.289,91.281H585.1l-24.592,42.595L585.1,176.471h49.184l24.592-42.595Z" transform="translate(-557.549 -88.33)"/>
                <circle id="Ellipse_747" data-name="Ellipse 747" class="cls-4" cx="2.951" cy="2.951" r="2.951" transform="translate(24.605)"/>
                <circle id="Ellipse_748" data-name="Ellipse 748" class="cls-4" cx="2.951" cy="2.951" r="2.951" transform="translate(73.814)"/>
                <circle id="Ellipse_749" data-name="Ellipse 749" class="cls-4" cx="2.951" cy="2.951" r="2.951" transform="translate(24.605 85.189)"/>
                <circle id="Ellipse_750" data-name="Ellipse 750" class="cls-4" cx="2.951" cy="2.951" r="2.951" transform="translate(73.814 85.189)"/>
                <circle id="Ellipse_751" data-name="Ellipse 751" class="cls-4" cx="2.951" cy="2.951" r="2.951" transform="translate(0 42.595)"/>
                <circle id="Ellipse_752" data-name="Ellipse 752" class="cls-4" cx="2.951" cy="2.951" r="2.951" transform="translate(98.381 42.595)"/>
              </g>
            </g>
          </g>
          <g id="Group_23969" data-name="Group 23969" transform="translate(0.013 170.379)">
            <path id="Path_43137" data-name="Path 43137" class="cls-3" d="M634.293,146.1H585.109L560.517,188.7l24.592,42.595h49.184L658.885,188.7Z" transform="translate(-557.553 -143.151)"/>
            <circle id="Ellipse_753" data-name="Ellipse 753" class="cls-4" cx="2.951" cy="2.951" r="2.951" transform="translate(24.605)"/>
            <circle id="Ellipse_754" data-name="Ellipse 754" class="cls-4" cx="2.951" cy="2.951" r="2.951" transform="translate(73.814)"/>
            <circle id="Ellipse_755" data-name="Ellipse 755" class="cls-4" cx="2.951" cy="2.951" r="2.951" transform="translate(24.605 85.189)"/>
            <circle id="Ellipse_756" data-name="Ellipse 756" class="cls-4" cx="2.951" cy="2.951" r="2.951" transform="translate(73.814 85.189)"/>
            <circle id="Ellipse_757" data-name="Ellipse 757" class="cls-4" cx="2.951" cy="2.951" r="2.951" transform="translate(0 42.595)"/>
            <circle id="Ellipse_758" data-name="Ellipse 758" class="cls-4" cx="2.951" cy="2.951" r="2.951" transform="translate(98.381 42.595)"/>
          </g>
          <g id="Group_23970" data-name="Group 23970" transform="translate(0.013 255.568)">
            <path id="Path_43138" data-name="Path 43138" class="cls-3" d="M634.293,200.923H585.109l-24.592,42.595,24.592,42.595h49.184l24.592-42.595Z" transform="translate(-557.553 -197.972)"/>
            <circle id="Ellipse_759" data-name="Ellipse 759" class="cls-4" cx="2.951" cy="2.951" r="2.951" transform="translate(24.605)"/>
            <circle id="Ellipse_760" data-name="Ellipse 760" class="cls-4" cx="2.951" cy="2.951" r="2.951" transform="translate(73.814)"/>
            <circle id="Ellipse_761" data-name="Ellipse 761" class="cls-4" cx="2.951" cy="2.951" r="2.951" transform="translate(24.605 85.189)"/>
            <circle id="Ellipse_762" data-name="Ellipse 762" class="cls-4" cx="2.951" cy="2.951" r="2.951" transform="translate(73.814 85.189)"/>
            <circle id="Ellipse_763" data-name="Ellipse 763" class="cls-4" cx="2.951" cy="2.951" r="2.951" transform="translate(0 42.595)"/>
            <circle id="Ellipse_764" data-name="Ellipse 764" class="cls-4" cx="2.951" cy="2.951" r="2.951" transform="translate(98.381 42.595)"/>
          </g>
        </g>
      </g>
      <g id="Group_23981" data-name="Group 23981" transform="translate(442.795)">
        <g id="Group_23978" data-name="Group 23978">
          <g id="Group_23975" data-name="Group 23975">
            <g id="Group_23973" data-name="Group 23973">
              <circle id="Ellipse_765" data-name="Ellipse 765" class="cls-4" cx="2.951" cy="2.951" r="2.951" transform="translate(73.814)"/>
              <circle id="Ellipse_766" data-name="Ellipse 766" class="cls-4" cx="2.951" cy="2.951" r="2.951" transform="translate(24.605 85.189)"/>
              <circle id="Ellipse_767" data-name="Ellipse 767" class="cls-4" cx="2.951" cy="2.951" r="2.951" transform="translate(73.814 85.189)"/>
              <circle id="Ellipse_768" data-name="Ellipse 768" class="cls-4" cx="2.951" cy="2.951" r="2.951" transform="translate(0 42.595)"/>
              <circle id="Ellipse_769" data-name="Ellipse 769" class="cls-4" cx="2.951" cy="2.951" r="2.951" transform="translate(98.381 42.595)"/>
            </g>
            <g id="Group_23974" data-name="Group 23974" transform="translate(0 85.189)">
              <path id="Path_43139" data-name="Path 43139" class="cls-3" d="M681.786,63.871H632.6L608.01,106.465,632.6,149.06h49.184l24.592-42.595Z" transform="translate(-605.046 -60.919)"/>
              <circle id="Ellipse_770" data-name="Ellipse 770" class="cls-4" cx="2.951" cy="2.951" r="2.951" transform="translate(24.605)"/>
              <circle id="Ellipse_771" data-name="Ellipse 771" class="cls-4" cx="2.951" cy="2.951" r="2.951" transform="translate(73.814)"/>
              <circle id="Ellipse_772" data-name="Ellipse 772" class="cls-4" cx="2.951" cy="2.951" r="2.951" transform="translate(24.605 85.189)"/>
              <circle id="Ellipse_773" data-name="Ellipse 773" class="cls-4" cx="2.951" cy="2.951" r="2.951" transform="translate(73.814 85.189)"/>
              <circle id="Ellipse_774" data-name="Ellipse 774" class="cls-4" cx="2.951" cy="2.951" r="2.951" transform="translate(0 42.595)"/>
              <circle id="Ellipse_775" data-name="Ellipse 775" class="cls-4" cx="2.951" cy="2.951" r="2.951" transform="translate(98.381 42.595)"/>
            </g>
          </g>
          <g id="Group_23977" data-name="Group 23977" transform="translate(0.006 170.379)">
            <g id="Group_23976" data-name="Group 23976">
              <path id="Path_43140" data-name="Path 43140" class="cls-3" d="M681.79,118.692H632.606l-24.592,42.595,24.592,42.595H681.79l24.592-42.595Z" transform="translate(-605.05 -115.74)"/>
              <circle id="Ellipse_776" data-name="Ellipse 776" class="cls-4" cx="2.951" cy="2.951" r="2.951" transform="translate(24.605)"/>
              <circle id="Ellipse_777" data-name="Ellipse 777" class="cls-4" cx="2.951" cy="2.951" r="2.951" transform="translate(73.814)"/>
              <circle id="Ellipse_778" data-name="Ellipse 778" class="cls-4" cx="2.951" cy="2.951" r="2.951" transform="translate(24.605 85.189)"/>
              <circle id="Ellipse_779" data-name="Ellipse 779" class="cls-4" cx="2.951" cy="2.951" r="2.951" transform="translate(73.814 85.189)"/>
              <circle id="Ellipse_780" data-name="Ellipse 780" class="cls-4" cx="2.951" cy="2.951" r="2.951" transform="translate(0 42.595)"/>
              <circle id="Ellipse_781" data-name="Ellipse 781" class="cls-4" cx="2.951" cy="2.951" r="2.951" transform="translate(98.381 42.595)"/>
            </g>
          </g>
        </g>
        <g id="Group_23979" data-name="Group 23979" transform="translate(0.013 255.568)">
          <path id="Path_43141" data-name="Path 43141" class="cls-3" d="M681.794,173.513H632.61l-24.592,42.595L632.61,258.7h49.184l24.592-42.595Z" transform="translate(-605.054 -170.561)"/>
          <circle id="Ellipse_782" data-name="Ellipse 782" class="cls-4" cx="2.951" cy="2.951" r="2.951" transform="translate(24.605)"/>
          <circle id="Ellipse_783" data-name="Ellipse 783" class="cls-4" cx="2.951" cy="2.951" r="2.951" transform="translate(73.814)"/>
          <circle id="Ellipse_784" data-name="Ellipse 784" class="cls-4" cx="2.951" cy="2.951" r="2.951" transform="translate(24.605 85.189)"/>
          <circle id="Ellipse_785" data-name="Ellipse 785" class="cls-4" cx="2.951" cy="2.951" r="2.951" transform="translate(73.814 85.189)"/>
          <circle id="Ellipse_786" data-name="Ellipse 786" class="cls-4" cx="2.951" cy="2.951" r="2.951" transform="translate(0 42.595)"/>
          <circle id="Ellipse_787" data-name="Ellipse 787" class="cls-4" cx="2.951" cy="2.951" r="2.951" transform="translate(98.381 42.595)"/>
        </g>
        <g id="Group_23980" data-name="Group 23980" transform="translate(0.013 340.757)">
          <path id="Path_43142" data-name="Path 43142" class="cls-3" d="M681.794,228.334H632.61l-24.592,42.595,24.592,42.595h49.184l24.592-42.595Z" transform="translate(-605.054 -225.382)"/>
          <circle id="Ellipse_788" data-name="Ellipse 788" class="cls-4" cx="2.951" cy="2.951" r="2.951" transform="translate(24.605)"/>
          <circle id="Ellipse_789" data-name="Ellipse 789" class="cls-4" cx="2.951" cy="2.951" r="2.951" transform="translate(73.814)"/>
          <circle id="Ellipse_790" data-name="Ellipse 790" class="cls-4" cx="2.951" cy="2.951" r="2.951" transform="translate(24.605 85.189)"/>
          <circle id="Ellipse_791" data-name="Ellipse 791" class="cls-4" cx="2.951" cy="2.951" r="2.951" transform="translate(73.814 85.189)"/>
          <circle id="Ellipse_792" data-name="Ellipse 792" class="cls-4" cx="2.951" cy="2.951" r="2.951" transform="translate(0 42.595)"/>
          <circle id="Ellipse_793" data-name="Ellipse 793" class="cls-4" cx="2.951" cy="2.951" r="2.951" transform="translate(98.381 42.595)"/>
        </g>
      </g>
    </g>
  </g>
</svg>
